<?xml version="1.0"?>
<svg width="185.256" height="138" xmlns="http://www.w3.org/2000/svg">
 <title>tornado</title>
 <g>
  <title>Layer 1</title>
  <g id="g3509" fill="#aaccff">
   <path id="path1365" class="tornado_svg" d="m64.376205,10.533697l0,1.813486c-9.555408,1.477892 -20.488152,4.263863 -28.770042,10.39889c-8.711777,6.453457 -7.185404,14.565241 1.514336,19.523573c-1.920158,-12.544573 18.530853,-19.289358 26.498615,-17.228088c-5.948578,4.477783 -28.633717,11.448967 -12.115173,21.418953c1.70726,1.030064 3.454655,1.630867 5.30125,2.156338c-6.226604,-10.539345 9.912758,-13.582081 15.899162,-14.507858c-2.577934,3.835224 -10.821285,3.175381 -11.521606,9.103123c-0.680614,5.768143 8.230461,8.05442 11.521606,8.795208c9.892281,2.226677 21.979233,2.277443 31.798347,-0.579323c3.491364,-1.015808 12.875488,-4.658195 10.534012,-10.887161c-1.073112,-2.854771 -4.096077,-4.450089 -5.991409,-6.431847c6.317352,-1.119026 14.107544,4.279343 12.113663,12.694363c1.59671,-0.835922 3.095421,-1.686718 4.515739,-2.923153c14.165352,-12.330856 -9.052628,-16.864027 -12.843887,-23.372339c9.798515,1.51543 26.20472,5.393637 26.498573,19.94832c1.626694,-1.738865 3.392029,-3.404114 4.692184,-5.52298c8.483688,-13.827085 -13.531342,-22.668343 -21.348412,-25.165613c-2.777077,-0.887151 -5.764046,-0.92168 -7.57103,-3.767588c11.533478,1.091636 24.76722,4.654211 34.826866,11.675667c4.76059,3.322832 10.091217,9.114742 7.765976,16.433285c-2.090775,6.581242 -8.706146,10.46944 -13.822952,12.865139c-12.735855,5.963173 -27.246155,9.052536 -40.883545,9.767696c-20.673477,1.084164 -42.088146,0.296593 -62.082508,-6.575237c-6.827682,-2.346653 -15.21703,-4.343388 -20.340984,-10.712238c-5.788316,-7.195446 -0.789864,-14.02737 5.199106,-17.801151c11.209482,-7.063585 26.0124,-10.471493 38.612112,-11.119463l0,0z" fill="#000000"/>
   <path id="path1605" class="tornado_svg" d="m71.190147,44.08313c4.064888,-1.787918 7.83828,-2.36351 12.113655,-2.873466c3.204048,-0.382183 5.881172,-0.382183 9.085236,0l5.299721,0.551296c1.645935,0.312012 8.476669,1.650089 6.139801,5.306168c-1.446068,2.262405 -5.493385,2.560905 -7.654007,2.96513c-6.190987,1.157997 -22.634361,2.9888 -24.984406,-5.949127z" fill="#000000"/>
   <path id="path1609" class="tornado_svg" d="m152.761307,43.096886c-1.715912,11.690159 -12.661652,15.753895 -21.198898,17.943863c-21.435791,5.498566 -42.130989,3.510887 -63.596672,0.190956c7.011528,-3.523594 16.767105,0.35553 24.227303,-0.035725c21.634827,-1.134518 42.432831,-2.993515 60.568268,-18.099094z" fill="#000000"/>
   <path id="path1627" class="tornado_svg" d="m149.171783,59.497726c-3.241776,13.035484 -17.153244,13.418777 -26.498619,14.892677c-21.235992,3.349236 -45.015854,-1.948586 -65.110878,-10.057388c-7.931416,-3.20071 -18.608852,-7.998726 -21.198898,-18.436405c6.256702,3.151287 11.720726,8.253521 18.170475,11.167057c28.93346,13.070137 66.125187,18.377373 94.63792,2.434059z" fill="#000000"/>
   <path id="path1699" class="tornado_svg" d="m142.357681,73.098831c-1.189285,13.78154 -17.064949,12.694443 -25.741356,12.694443c-21.852249,0 -56.53138,-1.793526 -70.410534,-25.388817c7.206036,1.664158 14.113861,7.732681 21.198826,10.559074c22.336823,8.910294 53.414619,16.283211 74.953064,2.1353l0,0z" fill="#000000"/>
   <path id="path1775" class="tornado_svg" d="m132.515503,80.352776l-0.757095,0.906738l0.757095,-0.906738z" fill="#000000"/>
   <path id="path1797" class="tornado_svg" d="m121.916061,90.32692c-12.018639,13.349945 -42.591599,7.142395 -52.997231,-6.347183c7.689896,-0.540787 17.137787,5.253662 24.984406,6.718956c9.318657,1.73912 18.701668,-0.340942 28.012825,-0.371773z" fill="#000000"/>
   <path id="path1819" class="tornado_svg" d="m71.947227,92.14035c13.029762,8.880867 26.566467,8.172554 40.883591,8.160904c-7.373032,9.375374 -24.823898,8.63398 -33.312538,2.085495c-2.926956,-2.25798 -7.651283,-5.710899 -7.571022,-10.246399l-0.000031,0z" fill="#000000"/>
   <path id="path1855" class="tornado_svg" d="m72.704353,103.021294c10.785683,7.53775 18.106873,5.125809 29.527023,6.347191c-5.427292,7.787094 -16.529076,8.358337 -23.470207,3.120087c-2.735405,-2.064636 -6.770767,-5.207413 -6.056816,-9.467278z" fill="#000000"/>
   <path id="path1887" class="tornado_svg" d="m89.360619,118.435898c-2.496391,4.932671 -7.180374,6.551216 -7.57103,12.694366c-4.599403,-3.309593 -9.703049,-9.214302 -11.356552,-15.414597c7.133423,2.459984 11.44059,3.427483 18.927582,2.72023z" fill="#000000"/>
  </g>
 </g>
</svg>