<?xml version="1.0" encoding="UTF-8" standalone="no"?>
<!-- Created with Inkscape (http://www.inkscape.org/) -->

<svg
   xmlns:dc="http://purl.org/dc/elements/1.1/"
   xmlns:cc="http://creativecommons.org/ns#"
   xmlns:rdf="http://www.w3.org/1999/02/22-rdf-syntax-ns#"
   xmlns:svg="http://www.w3.org/2000/svg"
   xmlns="http://www.w3.org/2000/svg"
   xmlns:sodipodi="http://sodipodi.sourceforge.net/DTD/sodipodi-0.dtd"
   xmlns:inkscape="http://www.inkscape.org/namespaces/inkscape"
   version="1.1"
   width="104.10137"
   height="205.03775"
   id="svg8139"
   inkscape:version="0.48.2 r9819"
   sodipodi:docname="23andMe_logo8.svg">
  <sodipodi:namedview
     pagecolor="#ffffff"
     bordercolor="#666666"
     borderopacity="1"
     objecttolerance="10"
     gridtolerance="10"
     guidetolerance="10"
     inkscape:pageopacity="0"
     inkscape:pageshadow="2"
     inkscape:window-width="1599"
     inkscape:window-height="944"
     id="namedview60"
     showgrid="false"
     inkscape:zoom="2.2986588"
     inkscape:cx="53.872503"
     inkscape:cy="87.582895"
     inkscape:window-x="0"
     inkscape:window-y="0"
     inkscape:window-maximized="0"
     inkscape:current-layer="layer1"
     fit-margin-top="0"
     fit-margin-left="0"
     fit-margin-right="0"
     fit-margin-bottom="0" />
  <defs
     id="defs8141">
    <clipPath
       id="clipPath7579">
      <path
         d="m 185.795,530.517 30.568,0 0,-55.517 -30.568,0 0,55.517 z"
         id="path7581"
         inkscape:connector-curvature="0" />
    </clipPath>
    <clipPath
       id="clipPath7583">
      <path
         d="m 185.795,475 30.568,0 0,55.517 -30.568,0 0,-55.517 z"
         id="path7585"
         inkscape:connector-curvature="0" />
    </clipPath>
    <clipPath
       id="clipPath7603">
      <path
         d="m 222.17,616.524 46.661,0 0,-88.296 -46.661,0 0,88.296 z"
         id="path7605"
         inkscape:connector-curvature="0" />
    </clipPath>
    <clipPath
       id="clipPath7607">
      <path
         d="m 222.17,528.228 46.661,0 0,88.296 -46.661,0 0,-88.296 z"
         id="path7609"
         inkscape:connector-curvature="0" />
    </clipPath>
    <clipPath
       id="clipPath7627">
      <path
         d="m 216.363,528.228 36.245,0 0,-77.841 -36.245,0 0,77.841 z"
         id="path7629"
         inkscape:connector-curvature="0" />
    </clipPath>
    <clipPath
       id="clipPath7631">
      <path
         d="m 216.363,450.387 36.245,0 0,77.841 -36.245,0 0,-77.841 z"
         id="path7633"
         inkscape:connector-curvature="0" />
    </clipPath>
    <clipPath
       id="clipPath7651">
      <path
         d="m 188.641,599.443 33.529,0 0,-68.926 -33.529,0 0,68.926 z"
         id="path7653"
         inkscape:connector-curvature="0" />
    </clipPath>
    <clipPath
       id="clipPath7655">
      <path
         d="m 188.641,530.517 33.529,0 0,68.926 -33.529,0 0,-68.926 z"
         id="path7657"
         inkscape:connector-curvature="0" />
    </clipPath>
    <clipPath
       id="clipPath7675">
      <path
         d="m 205,565.49 28.533,0 0,-72.235 -28.533,0 0,72.235 z"
         id="path7677"
         inkscape:connector-curvature="0" />
    </clipPath>
  </defs>
  <metadata
     id="metadata8144">
    <rdf:RDF>
      <cc:Work
         rdf:about="">
        <dc:format>image/svg+xml</dc:format>
        <dc:type
           rdf:resource="http://purl.org/dc/dcmitype/StillImage" />
        <dc:title></dc:title>
      </cc:Work>
    </rdf:RDF>
  </metadata>
  <g
     transform="translate(-716.28296,-176.00167)"
     id="layer1">
    <g
       id="g6080"
       transform="matrix(0.89879405,0.43837115,-0.43837115,0.89879405,195.08481,-310.44633)">
      <path
         id="rect3229"
         transform="translate(649.3742,207.20373)"
         d="m 117.65625,-37.0625 c -9.35374,0 -16.875,7.552511 -16.875,16.90625 l 0,155.84375 c 0,9.35374 7.52126,16.875 16.875,16.875 9.35374,0 16.875,-7.52126 16.875,-16.875 l 0,-155.84375 c 0,-9.353739 -7.52126,-16.90625 -16.875,-16.90625 z m -0.1875,3.375 c 7.61827,0 13.65625,6.01502 13.65625,13.625 l 0,155.3125 c 0,7.60998 -6.03798,13.625 -13.65625,13.625 -7.61827,0 -13.625,-6.00673 -13.625,-13.625 l 0,-155.3125 c 0,-7.61827 6.00673,-13.625 13.625,-13.625 z"
         style="fill:#000000;fill-opacity:1;stroke:#000000;stroke-width:2;stroke-miterlimit:4;stroke-opacity:1;stroke-dasharray:none"
         inkscape:connector-curvature="0" />
      <rect
         rx="14.183927"
         ry="14.425031"
         transform="matrix(0.73135371,-0.68199836,0.68199836,0.73135371,0,0)"
         y="642.55444"
         x="350.01556"
         height="190.18135"
         width="29.615934"
         id="rect3231"
         style="fill:#000000;fill-opacity:1;stroke:#000000;stroke-width:2;stroke-miterlimit:4;stroke-opacity:1;stroke-dasharray:none" />
    </g>
  </g>
</svg>
