<?xml version="1.0" encoding="UTF-8" standalone="no"?>
<!-- Created with Inkscape (http://www.inkscape.org/) -->

<svg
   xmlns:dc="http://purl.org/dc/elements/1.1/"
   xmlns:cc="http://creativecommons.org/ns#"
   xmlns:rdf="http://www.w3.org/1999/02/22-rdf-syntax-ns#"
   xmlns:svg="http://www.w3.org/2000/svg"
   xmlns="http://www.w3.org/2000/svg"
   xmlns:sodipodi="http://sodipodi.sourceforge.net/DTD/sodipodi-0.dtd"
   xmlns:inkscape="http://www.inkscape.org/namespaces/inkscape"
   version="1.0"
   width="663.5788"
   height="685.09381"
   id="svg2523"
   inkscape:version="0.48.2 r9819"
   sodipodi:docname="4H_Emblem.svg">
  <metadata
     id="metadata14">
    <rdf:RDF>
      <cc:Work
         rdf:about="">
        <dc:format>image/svg+xml</dc:format>
        <dc:type
           rdf:resource="http://purl.org/dc/dcmitype/StillImage" />
      </cc:Work>
    </rdf:RDF>
  </metadata>
  <sodipodi:namedview
     pagecolor="#ffffff"
     bordercolor="#666666"
     borderopacity="1"
     objecttolerance="10"
     gridtolerance="10"
     guidetolerance="10"
     inkscape:pageopacity="0"
     inkscape:pageshadow="2"
     inkscape:window-width="1391"
     inkscape:window-height="867"
     id="namedview12"
     showgrid="false"
     fit-margin-top="0"
     fit-margin-left="0"
     fit-margin-right="0"
     fit-margin-bottom="0"
     inkscape:zoom="0.65555556"
     inkscape:cx="125.32772"
     inkscape:cy="434.81332"
     inkscape:window-x="0"
     inkscape:window-y="0"
     inkscape:window-maximized="0"
     inkscape:current-layer="svg2523" />
  <defs
     id="defs2525" />
  <path
     style="font-style:normal;font-variant:normal;font-weight:normal;font-stretch:normal;letter-spacing:normal;word-spacing:normal;text-anchor:start;fill:#339966;fill-opacity:1;fill-rule:evenodd;stroke:#339966;stroke-width:0;stroke-linecap:butt;stroke-linejoin:miter;stroke-miterlimit:10.43299961;stroke-opacity:1;stroke-dasharray:none;stroke-dashoffset:0"
     d="m 459.05918,0.03711372 c -15.56182,0.01358 -30.94542,3.70936898 -43.375,11.53125028 -86.23148,39.75232 -73.24322,140.552146 -79.46875,220.593756 -2.10243,2.35821 -4.64289,8.22137 -9.84375,6.40625 -3.72117,-2.02427 -7.55052,-6.13684 -8.5,-9.6875 -4.26747,-61.41461 4.50578,-124.96481 -30.9375,-172.906256 -27.18806,-31.88125 -65.23413,-51.4490803 -107.5625,-41.6875 -38.99161,0.74406 -66.52894,38.64089 -85.937496,68.71875 -19.448072,27.220906 -49.884395,40.522446 -69.374996,67.000006 -20.807066,29.53647 -22.436083,76.74947 -2.5625,106.8125 45.563669,59.6682 120.237872,61.22499 191.937492,60.71875 11.4837,-3.51761 27.99404,-5.97539 37.25,3.6875 1.73564,4.25137 -0.24625,8.71879 -3.71875,11.03125 -51.74915,8.06413 -103.91202,-4.23379 -154.874996,4.53125 -39.56055,5.99776 -76.767692,39.96061 -87.624996,78.25 -10.440687,32.54717 -1.813692,68.23168 19.875,93.09375 45.851125,27.82756 69.807696,79.42539 108.187492,117.875 17.34238,11.93412 40.90887,17.14249 62.34375,11.5625 79.34018,-32.02264 97.53947,-120.06598 104.75,-195.9375 2.51592,-5.98702 2.65474,-16.08438 11.40625,-15.21875 3.63592,0.53739 5.38771,4.81296 5.59375,8.40625 -5.09842,86.69003 -2.07719,178.48424 36.84375,250.21875 l 60.875,-0.625 c -38.87574,-57.93836 -57.97,-126.44261 -66.40625,-197.6875 2.39256,-21.14615 -8.99497,-42.25707 6.65625,-59.8125 2.97376,-0.17052 7.33724,0.32872 8.90625,3.84375 6.32869,47.49777 14.85742,94.12655 38.15625,134.0625 22.22866,34.27887 56.18281,69.23626 99.34375,63.15625 33.95019,-1.94674 64.33824,-29.03961 78.5,-59.5625 8.91839,-33.08144 43.98924,-54.72027 65.625,-82.8125 17.75516,-30.72893 26.6865,-76.13343 8.09375,-109.875 -41.15534,-73.84405 -140.71366,-52.10984 -209.9375,-45.28125 -13.09535,-0.74086 -29.48674,3.82263 -39.3125,-4.9375 -0.99211,-4.294 0.88973,-8.0077 4.3125,-11.1875 33.49537,-9.87676 69.24194,-6.82487 104.59375,-10.34375 51.09086,-6.53472 104.23086,-27.00389 127.4375,-77.5625 13.70574,-27.63761 9.37656,-64.43557 -6.53125,-90.375 l -2.53125,-2.9375 -2.65625,-2.96875 -2.90625,-2.8125 -2.875,-2.6875 -2.90625,-2.59375 -3.125,-2.53125 -3.125,-2.4375 -3.21875,-2.3125 -6.5,-4.59375 -6.59375,-4.46875 -6.71875,-4.46875 -6.59375,-4.343752 -6.46875,-4.59375 -3.25,-2.3125 -3.125,-2.4375 -3,-2.562504 -3,-2.5625 -2.75,-2.5625 -2.78125,-2.8125 -2.65625,-2.84375 -2.53125,-2.96875 -2.40625,-3.21875 -2.1875,-3.21875 -2.1875,-3.5 -1.8125,-3.625 -1.84375,-3.75 -1.46875,-3.875 C 535.86167,35.130644 522.07088,22.115244 508.52793,13.568364 494.54859,4.7279117 476.69591,0.02172172 459.05918,0.03711372 z m 34.65625,82.50000028 15.3125,15.781254 -1.96875,2.218752 -2,2.125 -2,2.21875 -2.09375,2.25 -2.25,2.09375 -2.09375,2.25 -4.46875,4.46875 -4.375,4.34375 -4.46875,4.25 -2.09375,2.21875 -2.25,2 -2.125,2.125 -2,2.09375 33.0625,34.28125 1.5,0.65625 35,-33.9375 16.28125,17.21875 -88,84.84375 -16.125,-16.59375 c 10.16165,-11.3978 23.25345,-23.73013 34.9375,-34.59375 l -34.5625,-34.9375 -35.875,33.875 -15.34375,-16.5 5.4375,-6.78125 81.0625,-77.875006 1.5,-0.09375 z m -339.6875,18.750006 c 30.36205,24.36483 60.98045,53.05584 90.84375,79.5625 l 0.0937,1.5 c -5.53221,5.41409 -10.981,12.18447 -15.8125,16.8125 l -35.90625,-32 -33.375,35.96875 35.90625,32 c -4.70361,6.85825 -10.25332,12.27887 -15.75,18.3125 L 89.277884,173.09962 c 5.33025,-6.76987 9.43451,-11.33765 15.624996,-18.28125 l 36.6875,32.6875 32.625,-35.90625 c -10.73972,-11.69115 -23.77102,-21.78351 -35.21875,-32.8125 4.0028,-6.07228 10.86192,-12.16406 15.03125,-17.5 z m 333,283.21875 94.9375,75 0.71875,-0.0625 -14.84375,18.28125 c -12.84527,-7.21953 -25.16924,-20.31675 -37.96875,-28.90625 l -31.125,37.9375 37.15625,30.46875 c -3.25936,6.02955 -8.62822,12.15396 -14.125,18.1875 l -5.28125,-3.28125 -90.40625,-72.40625 14.84375,-18.25 38.03125,29.78125 c 10.89798,-11.56443 20.33643,-24.41625 31.15625,-37.34375 l -2.28125,-2.75 -35.625,-27.65625 14.8125,-19 z m -314.1875,7.8125 16.125,16.5 -35.71875,34 33.1875,35 36.59375,-31.8125 15.5,16.53125 -2.78125,3.75 -86.71875,78.9375 -16.28125,-17.21875 35.78125,-33.25 c -10.78234,-12.43459 -22.37807,-23.93485 -33.125,-35.75 -11.85058,10.12738 -24.27759,21.04153 -35.968746,31.78125 -5.24745,-4.79588 -12.20489,-10.88145 -16.125,-16.375 l 89.531246,-82.09375 z"
     id="path28"
     inkscape:connector-curvature="0" />
</svg>
