<svg xmlns="http://www.w3.org/2000/svg" width="42" height="42" version="1.1">
    <g transform="translate(-18.320326,-89.13026)" style="fill:#000000">
        <g transform="matrix(0.29944811,0,0,0.33565023,12.93036,87.116358)">
            <path d="m 64.376205,10.533697 0,1.813486 c -9.555408,1.477892 -20.488152,4.263863 -28.770042,10.39889 -8.711777,6.453457 -7.185404,14.565241 1.514336,19.523573 -1.920158,-12.544573 18.530853,-19.289358 26.498615,-17.228088 -5.948578,4.477783 -28.633717,11.448967 -12.115173,21.418953 1.70726,1.030064 3.454655,1.630867 5.30125,2.156338 -6.226604,-10.539345 9.912758,-13.582081 15.899162,-14.507858 -2.577934,3.835224 -10.821285,3.175381 -11.521606,9.103123 -0.680614,5.768143 8.230461,8.05442 11.521606,8.795208 9.892281,2.226677 21.979233,2.277443 31.798347,-0.579323 3.49136,-1.015808 12.87549,-4.658195 10.53401,-10.887161 -1.07311,-2.854771 -4.09607,-4.450089 -5.99141,-6.431847 6.31736,-1.119026 14.10755,4.279343 12.11367,12.694363 1.59671,-0.835922 3.09542,-1.686718 4.51574,-2.923153 14.16535,-12.330856 -9.05263,-16.864027 -12.84389,-23.372339 9.79851,1.51543 26.20472,5.393637 26.49857,19.94832 1.62669,-1.738865 3.39203,-3.404114 4.69219,-5.52298 8.48368,-13.827085 -13.53135,-22.668343 -21.34842,-25.165613 -2.77707,-0.887151 -5.76404,-0.92168 -7.57103,-3.767588 11.53348,1.091636 24.76722,4.654211 34.82687,11.675667 4.76059,3.322832 10.09122,9.114742 7.76597,16.433285 -2.09077,6.581242 -8.70614,10.46944 -13.82295,12.865139 -12.73585,5.963173 -27.24615,9.052536 -40.88354,9.767696 C 82.315001,57.825952 60.900332,57.038381 40.90597,50.166551 34.078288,47.819898 25.68894,45.823163 20.564986,39.454313 14.77667,32.258867 19.775122,25.426943 25.764092,21.653162 36.973574,14.589577 51.776492,11.181669 64.376204,10.533699 l 0,0 z
                     m 71.190147,44.08313 c 4.064888,-1.787918 7.83828,-2.36351 12.113655,-2.873466 3.204048,-0.382183 5.881172,-0.382183 9.085236,0 l 5.299721,0.551296 c 1.645935,0.312012 8.476671,1.650089 6.139801,5.306168 -1.44607,2.262405 -5.493385,2.560905 -7.654007,2.96513 -6.190987,1.157997 -22.634361,2.9888 -24.984406,-5.949127 z
                     m 152.76131,43.096886 c -1.71592,11.690159 -12.66166,15.753895 -21.1989,17.943863 -21.43579,5.498566 -42.13099,3.510887 -63.596673,0.190956 7.011528,-3.523594 16.767105,0.35553 24.227303,-0.03572 21.63483,-1.134518 42.43283,-2.993515 60.56827,-18.099094 z
                     M 149.17178,59.497726 C 145.93001,72.53321 132.01854,72.916503 122.67316,74.390403 101.43717,77.739639 77.65731,72.441817 57.562286,64.333015 49.63087,61.132305 38.953434,56.334289 36.363388,45.89661 c 6.256702,3.151287 11.720726,8.253521 18.170475,11.167057 28.93346,13.070137 66.125187,18.377373 94.637917,2.434059 z
                     m 142.35768,73.098831 c -1.18928,13.78154 -17.06495,12.694443 -25.74135,12.694443 -21.852254,0 -56.531385,-1.793526 -70.410539,-25.388817 7.206036,1.664158 14.113861,7.732681 21.198826,10.559074 22.336823,8.910294 53.414623,16.283211 74.953063,2.1353 l 0,0 z
                     m 132.5155,80.352776 -0.75709,0.906738 0.75709,-0.906738 z
                     m 121.91606,90.32692 c -12.01864,13.34995 -42.591598,7.142395 -52.99723,-6.347183 7.689896,-0.540787 17.137787,5.253662 24.984406,6.718956 9.318654,1.73912 18.701664,-0.340942 28.012824,-0.371773 z
                     m 71.947227,92.14035 c 13.029762,8.88087 26.566467,8.17255 40.883593,8.1609 -7.37303,9.37538 -24.8239,8.63398 -33.31254,2.0855 -2.926956,-2.25798 -7.651283,-5.7109 -7.571022,-10.2464 l -3.1e-5,0 z
                     m 72.704353,103.02129 c 10.785683,7.53775 18.106873,5.12581 29.527027,6.34719 -5.427296,7.7871 -16.52908,8.35834 -23.470211,3.12009 -2.735405,-2.06463 -6.770767,-5.20741 -6.056816,-9.46728 z
                     m 89.360619,118.4359 c -2.496391,4.93267 -7.180374,6.55121 -7.57103,12.69436 -4.599403,-3.30959 -9.703049,-9.2143 -11.356552,-15.41459 7.133423,2.45998 11.44059,3.42748 18.927582,2.72023 z"/>
        </g>
    </g>
</svg>
