<?xml version="1.0" standalone="no"?>
<!DOCTYPE svg PUBLIC "-//W3C//DTD SVG 1.1//EN" "http://www.w3.org/Graphics/SVG/1.1/DTD/svg11.dtd">
<svg xmlns="http://www.w3.org/2000/svg">
<metadata>Generated by Fontastic.me</metadata>
<defs>
<font id="nikn-2" horiz-adv-x="512">
<font-face font-family="nikn-2" units-per-em="512" ascent="480" descent="-32"/>
<missing-glyph horiz-adv-x="512" />

<glyph unicode="&#97;" d="M169 493l0-7c-35-6-74-17-105-43c-32-26-26-59 6-79c-7 51 67 79 97 70c-22-18-105-47-45-88c7-4 13-6 20-8c-23 43 36 55 58 59c-10-16-40-13-42-37c-3-24 30-33 42-36c36-9 80-10 116 2c13 4 47 19 38 45c-4 11-15 18-22 26c23 5 52-18 45-52c5 3 11 7 16 12c52 50-33 69-47 96c36-7 96-22 97-82c6 7 12 14 17 23c31 56-49 92-78 103c-10 3-21 3-28 15c43-4 91-19 128-48c17-13 36-37 28-67c-8-27-32-43-51-53c-46-24-99-37-149-40c-75-4-153-1-226 27c-25 10-56 18-75 44c-21 30-3 58 19 73c41 29 95 43 141 45z m25-137c15 7 29 10 44 12c12 1 22 1 34 0l19-2c6-2 31-7 22-22c-5-9-20-11-28-12c-22-5-82-12-91 24z m298 4c-6-48-46-64-77-73c-79-23-154-15-233-1c26 14 62-1 89 0c79 5 155 12 221 74z m-13-67c-12-53-63-55-97-61c-77-14-164 8-238 41c-29 13-68 33-77 76c23-13 43-34 66-46c106-53 242-75 346-10z m-25-56c-4-56-62-51-94-51c-80 0-206 7-257 103c26-6 51-31 77-43c82-36 195-66 274-9z m-36-29l-3-4z m-39-41c-44-55-155-29-193 26c28 2 62-22 91-28c34-7 68 2 102 2z m-182-7c47-37 97-34 149-34c-27-38-90-35-121-8c-11 9-28 23-28 42z m3-45c39-31 66-21 107-26c-19-32-60-34-85-13c-10 9-25 22-22 39z m60-63c-9-20-26-27-27-52c-17 14-36 38-42 63c26-10 42-14 69-11z"/>
<glyph unicode="&#98;" d="M374 101l-1-1l0-1l-2-1l-1-2l-2-4l0 0l0 0l-1 0l-1 1l1-1l0 0l0-1l-1 0l0-1l0-1l-1-1l-1-1l0-1l-1-1l0-1l0-2l-1-2l-1-5l0-1l0 0l0 0l1 1l0 1l1 4l3 6l3 7l5 7l1 0l-1 1z m8 12l-1 1l0-1l0 0l-1 0l0-1l0 0l-3-4l0 0l1 0l0-1l0 0l0 0l-1-2l-2-2l0-1l0-1l0 1l1 1l1 2l2 2l3 4l0 0l0 1l0 1l0 0z m-19-62l0-2l0-1l1-1l0 0l1-2l0-1l1-2l0-1l1-3l0-1l1-2l0 0l1-9l0-1l0 0l1 1l0 0l-1 3l0 1l0 1l0 2l-1 1l0 1l0 3l-1 1l0 1l0 0l-4 14l-1 7l-1 11l1 1l-1-1l0-2l0 0l0-1l0-1l0-2l0-1l0-1l0-4l0-2l0-1l1-2l0 0l0-1l0 0l0 0l0 0l0 0l0-1l0 0l0 0l0 0l0-1l0 0z m98 117l0 0l0 0l0 0l0-1l0 1l0 0l0 0l0-1l-1 0l0 0l1 0l0 0l0-1l-1 0l0 0l0-1l-1 0l0-1l-2-1l0 0l0 0l-1 0l0-1l0 0l-1-1l-3-2l-1-1l-1-1l0-1l0 0l1 1l5 4l2 1l6 5l-3 1z m51 76l-1 0l-1 2l0 0l1 1l0 0l0 2l0 1l-1 0l-1 0l0 0l0 0l0 0l0 0l0 0l0 0l-1 1l0 1l0 0l0 0l0 1l0 0l0 0l0 1l0 0l-1 0l0 0l-1 1l0 1l0 0l0 0l0 1l0 0l0 0l0 0l1 1l0 0l-1 0l0 1l-1 0l0 1l0 0l0 1l0 0l0 1l-1 0l0 0l0 0l0 0l-1 0l0 1l0 0l0 0l0 0l0 1l0 0l0 0c1 0 1 0 1 0l0 0l0 0l0 1l0 0l-1 0l0 0l-1 0l0 0l0 1l0 0l-2 1l0 1l0 0l0 0l0 1l0 0l0 0l0 1l0 0l0 0l0 1l0 1l0 0l0 1l0 0l0 1l0 0l0 0l0 0l0 0l0 1l-1 2l0 0l-1 2l0 0l0 1l0 0l-1 1l0 0l-1 1l0 1l-1 0l-1 0l0 0l0 1l-1 1l0 0l0 1l-1 0l0 0l0 0l0 1l-1 0c1 24 1 48 0 71l0 1l-1 0l-1 1l0-1l-1 0l-1 1l-1 0l-1 0l0 0l-1-1l-2 1l-1 0l0 0l0-1l-1 0l0 0l-1 0l-1 0l0 0l0 1l0 0l-1 0l-1 0l0 1l-1 1l0 1c0 0-1 0-1 0l-1 0l-1 0l0 0l-1 1l-1 0l0 0l0 0l-1 0l-1 0l0 1l0 0l-1 0l0 0l-1 0l0 0l0 0l-1 0l0 0l-1 1l0 1l-1 0l0 0l-1 0l-3 1l-1 1l-1 1l0 1l0 0l-1 0l0 0l0 1l0 0l-1 0l0 1l0 0l-1 0l-1 0l-1 0l-1 2l-1 0l-1 0l0 1l0 0l0 0l-1 1l-2 0l-1 0l-1 0l0-1l0-1l0 0l-1 0l0 0l0-1l-1 0l0 0l0 0l-1 0l0 0l0 0l0-1l0 0l0 0l-1 0l-3 0l0 0l-1 0l0 1l0 0l-1 0l0 0l0-1l0 0l0 1l0 0l-1 0l0 0l-1 0l0 0l0 1l0 1l-1 0l0 0l-1 1l0 0l-1 0l0-1l0 0l-1 0l0 0l-1-1l-1 0l0 0l0 0l-1-1l0 0l-1 0l-1 0l0 0l0-1l0-1l-1 1l0 0l0 0l0 0l-1 0l0-1l-1 0l0 0l-3 2l0 0l0 0l-1 0l0 0l0-1l-1 0l0 0l-1-1l-1 0l-1 0l-2 0l0 0l-1-1l-1 0l0 0l-1-2l0 0l-1-1l0 0l-2 0l-1 0l0 0l0-1l-1-1l-1-1l-1 1l-1 2l-1 1l0 0l-3 0l0 0l-1 1l0 0l0 1l0 0l-1 0l-1 1l-1 0l0 0l0 1l0 0l0 0l0 0l0 1l0 0l0 1l-1 0l-1 0l0 0l0 0l0 0l-1 0l0-2l0 0l0 0l-1 0l0-1l0 0l0 0l-1 0l-1 0l0 0l0 0l-1 1l-1 0l0 0l-1 0l-1 0l0 0l0 0l-1 1l0 0l0 1l0 1l0 0l-1 1l0 0l0 0l-1 0l0 0l-1 0l-1 0l0 0l0-1l0 0l0-1l-1-2l0 0l-1-1l-2 1l0-1l1 0l0-1l0 0l0 0l-1-1l0 0l0-2l0-1l-1-1l-1 0l-1 1l-1 1l-1 1l0 1l0 1l1 1l0 1l0 1l0 0l0 1l-1 0l0 0l-1 0l0 0l0-1l0 0l-1-1l0-1l-1 1l-1 1l0-1l0 0l-1-1l0 0l0 0l0 0l0 0l-1-1l0 0l-3 0l0 1l-1 1l0 1l0 0l-1 1l0 0l-3-1l-1 1l0 1l0 1l0 1l-2 1l-1-1l-2-1l-3-3l-1-1l-2 0l-2 0l-1 1l0 0l0 1l0 0l0 1l0 1l0 0l0 1l0 0l0 1l0 0l0 0l-2 0l-2 1l-1 0l0 2l0 1l0 1l0 2l-1 0l-1 0l-2-1l-1 0l-5 1l-1 0l-1-1l0-1l-1-1l0 0l-1 0l-2 0l0 0l-2 2l0 0l0 0l-1 1l0 1l-2 0l0 0l-1 0l-3-1l0 0l-5 1l-1 0l-3 2l-1 0l0 0l-1 0l-1 0l0 0l-2 0l-1 0l-2 0l0 1l-1 0l0 1l0 2l0 1l0 0l-1 1l-1 1l0 1l-1 1l0 0l-1 1l0 0l-1 0l0 0l-1 0l0 1l0 0l0 0l-1 1l0 0l-1-1l0-2l0-1l-1 0l-1 0l-1 0l-1 1l-2 1l0-1l-1 0l0 0l0-1l-1 0l-2 0l-1 1l-1 0l0 1l-7 7l0 0l-1 0l-1 0l0 1l-2-1l-1 0c0 31 0 61 0 92l0 0c-39 0-79 0-118 0l0-1c0-70-1-140-1-210c-47 0-93 0-140 0l0-1l1-2l0-1l0-1l0 0l1-2l0 0l0-1l1 0l0 0l1 0l0 0l0-1l3-2l0 0l2 0l1-1l2-1l1-2l1-1l1-3l0-1l2-2l0-1l0 0l0-1l0 0l1 0l1-1l0 0l1-1l2 0l1-1l1 0l1 0l1-1l1-1l1 0l0-1l0 0l1-1l0 0l1-1l0 0l0 0l1-1l3-3l0-1l1-1l3-1l0-1l1 0l1-1l0-1l1 0l1 0l0-1l1-2l0-1l1 0l1-2l4-2l1-2l1 0l1-1l2-1l0 0l0 0l1-1l0 0l0 0l0 0l1 1l0 0l0 0l0 0l1-1l0 0l0 0l1 0l0-1l0 0l0 0l1 0l0 0l0-1l0 0l1 0l1-2l1 0l1 0l1-1l0 0l1-1l0 0l0-1l0 0l0-1l1 0l1 0l0 0l1-1l1-1l0-1l0 0l0-1l0-1l1 0l0 0l0-1l0 0l0 0l0-1l0-1l0 0l0-1l0 0l0 0l1-1l0 0l1 0l0-1l0 0l0-1l0 0l0 0l1-1l1-1l0-1l0-1l1 0l0 0l1-1l1-1l0-1l0-1l0-2l0-1l-1-1l0-1l0-1l1-3l0 0l0-1l0 0l0-1l1 0l0 0l0-1l1-1l0-2l1 0l0-1l1 0l0-1l1-2l0-1l1-1l0-1l0 0l0-1l1 0l1-1l1-1l0 0l0-1l0 0l1 0l0 0l3-2l0-1l1 0l1 0l1 0l1-1l1 0l0 0l0-1l1-1l1-2l1 0l2-1l1-2l2-1l3-1l3-1l3 0l0 0l0 0l1-1l-1-1l1 0l0 0l0 0l2-2l1 0l4-1l1 0l0 0l1-1l0 0l0 0l0-1l2-2l2 0l0-1l0 0l2-1l0 0l1 0l0 1l0 0l0 0l1-1l0 0l1 0l-1-1l1 0l2 0l2-1l2 0l1 1l0 1l1 1l0 0l0 0l0 0l0 1l0 1l1 0l1 1l1 0l0 0l1 3c0 0 1 0 1 0l1 0l0 0l2 2l1 0l0 0l0 0l0 0l-1 1l0 1l0 0l0 2l0 1l0 0l0 0l1 1l0 0l0 0l1 0l0 0l0 0l0 0l0 1l0 0l0 1l0 0l0 1l0 0l0 1l0 0l0 1l2 3l0 0l0 1l0 0l0 0l0 0l0 1l0 0l1 0l0 1l0 0l0 1l1 1l0 0l0 0l0 0l1 2l0 1l1 0l0 1l0 0l0 0l2 0l0 0l2 1l0 0l1 0l0 0l0-1l0 1l0 0l0 0l0 0l1 0l0 0l0 1l0 0l0 0l5-1l0 1l1 1l0 0l0 2l0 0l0 0l1 0l0 1l0 0l1 0l0 1l1-1l0 0l1 0l0 0l1-1l0 0l2-1l1 0l1-1l1 0l4 0l1 0l1 0l0 0l1 0l0-1l1 0l0 0l0 1l1 0l0 0l0 0l1 0l1 0l1 0l0 0l0-1l1 0l6-1l2 1l0 0l1 0l0 1l0 0l0 0l1 0l0-1l0 0l-1-1l0 0l1 0l1 0l0 1l1 0l0 0l1-1l0 0l1 0l0 0l0 0l1 0l0 0l0-1l0 0l1-1l0-1l0-1l1 0l0-1l0 0l1 0l1 0l0-1l-1-1l0-1l1 0l0 1l1 0l1 1l1-1l0-1l0-2l0 0l0-1l1 0l0 0l0 0l1-1l1 0l3-1l1-1l0 0l0-2l1 0l0-1l0 0l1-1l0 0l3-1l1-1l0-1l1 0l2-1l0-1l1 0l1-2l-1-1l1 0l2-2l0 0l0-1l1 0l0 0l0 0l1-1l0-2l1-2l0-1l0-1l0 0l0 0l0-1l0-1l0 0l1 0l0-1l0 0l1 0l0-1l0 0l0 0l0-1l0 0l1 0l0 0l0 0l1-1l0 0l0 0l0-1l1-4l1-1l1-2l0-1l0 0l1 0l1-1l0 0l0-1l0-1l0-1l1 0l2-1l0 0l-1 0l0-1l0 0l0-1l0 0l0 0l1-2l0-1l1-2l1-1l0 0l-1-1l1-1l0-1l1 0l1 0l0-1l1 0l0-1l0 0l0 0l1-1l3-1l1-1l1-1l0-1l0 0l0-1l1 0l0 0l0 0l0-1l0 0l0-1l0 0l1-1l0-1l1 0l1 0l0 0l0-1l0-1l1 0l0-1l1 0l0-1l0 0l0-1l0 0l0 0l0-1l1 0l0 0l0-1l0-1l0 0l0 0l1-1l0 0l1 0l0-1l1 0l0-1l1 0l0 0l1 0l0-1l0 0l0-1l0 0l1-1l0 0l2 0l0 0l0-1l0 0l1 0l1 0l0 0l0 0l1-1l0 0l1 0l1-1l0 0l1-1l0-2l0-1l0 0l0 0l0 0l1-1l0 0l0-1l0 0l0-1l0-1l0-1l-1-1l0 0l0-1l0 0l-1-1l0 0l0 0l1-1l0 0l1 0l0 0l0-1l0 0l0 0l1-1l0 0l1-1l0-1l-1-1l0-2l0 0l0-1l0 0l0 0l0-1l0 0l-1-1l1-1l0-1l1 0l0 0l0 0l1 0l0-1l0 0l0-1l0-1l1 0l1-1l1-1l1-1l0-1l1-1l1 0l0-2l1-2l1-5c0-1 1-2 1-3l0-1l1 0l1-1l0 0l1-1l0-1l0 0l-1-1l0 0l0-1l1-1l1 0l1 0l0 0l0 0l1 0l0 0l0 0l1 0l1 0l0 0l1-1l0 1l2-1l0 0l1 0l0 0l1 0l0 0l0 0l0 0l1 0l0 0l0 0l1-1l1-1l1 0l0-1l0 0l1 0l0 0l0-1l0 0l0 0l0-1l1 0l0 0l1-1l0 0l3 1l1 0l1-1l1 0l1-1l0 0c0 0 0 0 1 1l1-1l1-1l1 0l0-1l0 0l0 0l1 0l0-1l1-1l1 0l3-2l1 0l1 0l2 0l1 0l0-1l1 0l1 0l1 1l0 0l3-1l2 1l3 0l1-1l0 0l0 0l4-1l1 0l0 0l1-1l0 0l1-1l0-1l1 0l2-2l1 0l0-1l1 0l1 0l0 0l0-1l1 0l1-1l0 1l0 0l0 0l0 0l0 0l0 0l0 0l0-1l1 0l0 0l1 0l0 1l0 1l-1 1l1 0l0 1l1-1l1 1c0 0 1 0 1 0l0 1l0 0l0 0l2 0l3 0l0 1c0 1 0 2 0 3l-1 1l0 0l-1 0l0-1l0-1l0 0l0-1l-1 0l-1 0l0-1l0 0l0 0l0 0l-1 0l0 1l0 0l0 1l1 1l0 1l0 0l1 0l0 0l0 1l0 0l-1 0l-1 0l0 0l-1 0l0 1l0 0l-1 0l0 1l0 2l0 0l0 1l0 1l-1 0l1 1l0 0l0 0l0 1l-1 0l0 0l0 0l0 0l-1 0l0 1l0 1l1 0l0 1l0 0l0 0l-1 0l0 0l0-1l0 0l0 0l0 1l0 1l0 0l0 0l-1 0l-1 0l0 1l0 0l0 1l-1 0l0 0l0 0l0 1l0 1l0 0l0 1l-1 0l1 1l0 0l0 0l1 0l0 0l0-1l0 2l-1 3l-1 3l-1 2l0 2l0 1l0 1l-1 0l0 0l-1 0l0 0l-1 1l0 1l0 0l1 1l0 1l0 0l2-2l0 1l0 0l-2 1l0 1l0 0l-1 1l0 2l0 0l1 0l2 1l1 0l0 1l-1 1l0 0l0 1l0 0l0 1l0 0l1 0l1 0l0 1l0 0l-1 1l0 1l1 0l0 0l0 1l0 1l0 0l0 0l1 1l0 1l-1 0l-2-1l-1 0l-1-1l-1 0l-1 1l-1 0l-1 1l-1 0l-1 0l-1 0l-1 0l-1 1l1 0l1 0l1 0l1 0l0 1l0 0l0 0l-1 0l0 0l0 0l0 0l0 1l0 1l-2 1l1 0l0 1l-2 1l0 1l1 0l1-1l3-5l1 0l0-1l0 0l0 0l1 0l0 0l0 1l0 0l1 1l0 0l0 0l1 0l0 0l0 0l0 1l1 0l1 1l0 0l0 0l0-1l0-1l1 0l0 0l0 0l0 0l0 0l0 0l0 0l0 0l-1-1l0 0l0 0l0 0l0 0l0 0l0-1l-2 0l1-1l0 0l1 1l3 1l0 1l0 1l2 4l1 1l0 0l0 1l0 2l2 2l0 1l0 1l0 0l0 0l1 1l0 1l0 0l0 1l-4 1l0 1l-1 1l0 1l0 0l0 1l0 1l0 0l-1-1l0 0l-1 1l-1-1l-1 1l0 0l-1 1l1 0l0 0l0 0l0 0l0 0l0 0l1 0l0 0l0 0l0 0l0 0l1 0l1 0l2 0l1 0l0 0l0 0l0 0l-1 0l1 0l2 0l1 0l1 0l0 0l1-1l0-1l-1 0l0 0l1 0l1 1l3 4l2 3l0-1l0 0l0 0l0 0l1 2l0 0l0 0l0 1l0 0l0 0l0 2l0 1l0 0l0 0l0 0l-1 0l1 0l0-1l-1 0l-2-1l0-1l0 0l-1-1l0-1l0 0l-1 0l0 0l1 1l0 0l-1 1l0 0l-1 0l-1 1l0 0l1 1l1 2l0 0l-1 0l1 1l0 0l0 0l1 0l0 0l0-1l1 1l1 0l2 1l0 1l1 0l0-1l0-1l0 0l0-1l0 0l0 0l0 0l1-1l0 1l1 1l0 0l0 1l0 1l0 0l1 2l0 0l1 0l0 0l-1-1l0-1l1-1l-1 0l0-1l-1-2l1 1l1 0l1 0l1 2l1 1l1 1l1 0l-1 2l0 1l1 1l0 0l-1 1l-1 2l-1 1l1 1l0-1l1 0l1-1l0 1l0 0l0 1l-1 1l0 0l0 0l0 0l0 1l0 0l1 0l0-2l1 0l0 0l0 0l0 0l0-1l0 0l1 0l0 0l1-1l0 0l0-2l0 0l0-1l1 0l1 0l4 2l1 0l1 1l1 0l3 2l-1 1l-1 1l-1 0l-1 0l-1 0l0-1l-1 0l0 1l0 0l2 1l0 1l-1 0l0 1l0 0l-1 0l-1 1l0 0l-1 0l0 0l0 0l0 1l0 1l0 0l0 0l-1 1l-1 1l0 1l0 1l0 1l0 0l0-1l1 0l0 1l1 0l0-1l1 0l0 0l0-1l0 0l0-1l0 0l0 0l0 0l1-1l0 0l0 0l1 0l0 0l0 0l1 0l0 0l0-1l2 1l0-1l0-1l-1 0l0 0l-1-1l1 0l2 1l2 1l-2 1l0 0l0 1l0 0l0 0l0 1l0 0l0 0l0 0l1 1l0 0l0 0l-1 0l0 0l0 0l-1 0l0 1l0 1l0 0l0 0l0 0l1-1l0 0l0 0l1 0l0 0l0-1l0 0l0-1l0 0l1-1l1-1l0 0l0 0l0 0l1 0l1 2l1 0l0-1l1 1l0 0l1 0l1 0l0 0l0 0l-1-2l0 0l0-1l1 0l0 0l1 1l0 0l1 0l0-1l0 0l-1 0l-2 0l0-1l-1 0l1 0l2 0l2 1l1 0l1 1l1 0l1 1l1-1l0-1l0 0l-1-1l0 0l-6-3l-1-1l-1-1l1 1l2 1l3 1l2 2l4 1l3 1l4 3l-1 0l-2 0l-5-4l0 0l0 0l-1 0l0 0l0 1l0 0l0 0l0 1l0 0l0 1l0 0l5 2l2 0l2 0l1 0l2 1l2 0l4 3l3 2l1 0l0 1l1 0l2 2l2 2l1 1l3 2l0 0l0 1l0 1l0 2l0 1l0 1l0 1l0 0l0 0l1 0l0-1l1 0l1 0l1 1l2 3l0 0l0 0l0 0l0 0l1 0l0 0l1 1l0 0l0 1l0 0l1-1l1 1l0 1l0 1l0 0l1 1l1-1l1 0l0 0l0 0l0 0l0 0l-2 1l0 0l-1 1l-1 1l0 0l0 0l0 0l0 0l0 0l0 0l0 0l0 0l-1 0l0 0l0 1l0 0l0 1l0 0l1 0l0 1l0 0l-3 1l-1 1l1 1l0 1l1 0l0 1l-2 1l0 0l0 1l1 1l0 0l0 0l-1 0l0 0l0 1l-1 0l0 1l0 0l2 0l1-1l2-1l1-1l1 1l1 2l0 1l0 0l1 1l1 0l1 1l1 0l0 0l0-1l0 0l1 0l0-1l0-1l1 0l-1-1l0-2l-1-2l0-2l-1 0l0 0l-1 0l0-1l0 0l0 0l0-1l1 0l2 1l6 1l0 0l1 0l0-1l1 0l1 1l0 0l0-1l0 0l-1-1l0 0l-2 0l-1 0l0 0l-1-1l0-1l-1 0l0 0l-1 0l-1-1l-3-3l-1 0l0-1l1 0l1 0l2 3l2 1l12 6l5 1l3 2l1 1l2 0l1 0l4 0l2 0l0 0l1 1l-1 1l-2 2l-1 2l0 2l3 4l1 1l0 1l0 0l1 0l1 0l0 0l1 1l2 3l0 0l0 1l0 1l1 1l0 0l-1 1l0 1l0 0l0 1l0 0l0 1l0 1l0 0l0 1l0 1l-1 0l0 1l0 2l0 1l0 1l1 1l1 1l0 1l0 0l-1 1l0 0l0 1l0 0l0 1l0 0l0 1l0 1l1 0l0 0l0 1l1 2l0 1l2 1l0 0l0 3l2 2l0 1l0 0l0 1l0 0l0 1l0 1l0 0l0 1l1 0l0 1l0 0l0 0l-1 1l0 1l0 1l0 0l0 0l2 1l0 0l0 0z m-113-119l0 0l0 0l0 0l-1 0l0-1l0 0l0-1l-1 0l-1 0l-1 0l0-1l-1-1l-2 0l0-1l-1 0l-1-1l-1-1l0 0l-1-1l-1 0l-1 0l-1-1l-1 0l0 0l0-1l0-1l0 0l0 0l0-1l-1-1l0 0l0-1l0 0l0 1l1 0l1 1l2 2l1 1l4 2l2 2l1 0l1 1l3 1l0 0l0 1l1 0l0 1l0 1z m4 3l-2-2l0 0l1 0l0 0l1 1l1 0l0 1l1 0l1 1l0 0l0 0l0 0l0 0l0 0l-1 0z"/>
<glyph unicode="&#99;" d="M360 505c-21 10-46 2-57-19l-170-350c-10-21-2-46 19-56c21-11 46-2 57 19l170 350c10 21 2 46-19 56z m-4-7c17-8 24-29 15-46l-170-348c-8-17-28-24-45-16c-17 8-24 28-16 46l170 348c9 17 29 24 46 16z m-193-40l3 1c19 6 39-5 45-24l118-385c5-19-5-39-24-45l-3-1c-19-6-38 5-44 24l-118 385c-6 19 5 39 23 45z"/>
<glyph unicode="&#100;" d="M101 187c-6 0-13 3-18 6c-6 3-9 8-11 15c-1 3-18 60-21 70c-3 14-5 16-8 17c-1 1-2 1-3 0c-1-1-3-2-3-3c-1-1-1-4-1-52l0-50l-30 0l0 54c0 61 0 59 4 67c5 9 12 13 28 14c13 1 21-3 30-11c7-7 7-8 18-47c12-40 14-48 16-50c2-2 5-2 7 0l1 1l0 104l31 0l-1-55c0-52 0-55-1-58c-3-11-9-18-18-21c-4-1-5-1-11-2c-4 0-8 0-9 1z m141 3c-11 32-21 64-31 96c-1 3-3 6-3 7c-2 2-6 1-7-2l-33-101l-32 0l38 119c3 5 7 9 13 12c6 3 11 4 19 4c11 0 17-3 24-9c7-7 6-6 27-73l8-24c0-1 2-1 36-1l36 0l3 2c2 1 3 2 4 4c2 3 2 4 2 7c0 3 0 4-2 6c-2 4 0 4-30 4c-30 1-28 0-35 4c-4 2-10 8-13 12c-5 8-7 16-7 26c0 11 2 18 7 25c5 7 14 12 24 14c2 0 17 0 41 0l39 0l0-28l-36 0c-24 0-36 0-37 0c-3-1-6-4-7-8c-2-6-1-12 4-15l2-2l22 0c22 0 22 0 26-1c14-5 27-17 31-29c3-10 0-25-8-35c-6-9-14-13-24-14c-7-1-101-1-101 0z m233 0l-34 103c-1 2-4 1-6 0l-34-103l-16 0c-8 0-15 0-15 0c0 1 31 101 34 111c2 7 5 11 9 14c6 7 15 10 26 10c15 0 24-6 31-19l35-116c0-1-7-1-15-1c-13 0-14 0-15 1z"/>
<glyph unicode="&#101;" d="M3 173c-7-14-1-31 13-37c14-7 30-2 37 12l11 23l-23 79z m156 255c-13 7-30 1-37-12l-45-92l24-79l71 146c7 14 1 31-13 37z m-73-327c5-15 20-24 35-19c15 5 23 20 19 35l-39 128l-37-74z m-25 274c-5 15-20 23-35 19c-15-5-23-20-19-35l34-109l36 74l-16 51z m-20-125l23-79l37 74l-24 79z m139-24l-43 0c0 1 0 2 0 3c0 10 4 18 15 24c5 4 9 6 10 7c1 1 3 3 3 4c1 2 2 4 2 5c0 5-3 8-8 8c-6 0-9-4-9-11l-13 0c0 8 2 13 7 17c4 3 9 5 15 5c13 0 21-7 21-18c0-9-4-15-16-22c-9-6-10-7-11-11l27 0z m18 19c0-6 4-10 10-10c6 0 9 3 9 8c0 6-3 8-13 8l-1 0l0 11l1 0c9 0 13 2 13 7c0 5-4 8-9 8c-6 0-9-3-9-10l0 0l-13 0c0 8 2 12 7 16c4 3 9 5 16 5c12 0 21-7 21-17c0-7-4-12-12-14c3-1 4-1 5-2c5-2 7-7 7-13c0-10-8-17-22-17c-14 0-23 8-23 21l13 0c0 0 0-1 0-1z m65 2l-4-1c-8-1-11-3-11-7c0-3 3-5 7-5c6 0 10 4 10 13z m-6 26c7 0 12-1 15-5c4-3 5-7 5-15c0-1 0-3 0-7l0-4c0-7 0-12 1-16l-11 0c0 3 0 4 0 5l0 2c-4-6-8-8-16-8c-10 0-16 6-16 14c0 3 1 7 3 9c3 3 6 4 12 5c5 1 10 2 15 2c0 7-2 9-8 9c-5 0-7-2-8-6l-13 0c1 9 9 15 21 15z m40-7c4 5 8 7 14 7c7 0 12-3 14-9c1-3 2-5 2-12l0-26l-13 0l0 27c0 7-2 10-7 10c-6 0-9-4-9-13l0-24l-13 0l0 46l12 0z m58-31c6 0 9 6 9 14c0 9-3 14-9 14c-6 0-10-6-10-14c0-8 4-14 10-14m22-9l-12 0l0 6c-3-5-8-7-13-7c-12 0-19 10-19 24c0 14 7 24 18 24c6 0 10-2 13-7l0 23l13 0z m81 0l-13 0l0 51l-15-51l-14 0l-16 51l0-51l-12 0l0 63l21 0l15-47l14 47l20 0z m41 28c0 6-4 10-10 10c-5 0-9-3-10-10z m-9-29c-14 0-24 9-24 24c0 15 10 24 23 24c14 0 23-9 23-25c0-1 0-1 0-3l-33 0c1-6 5-10 11-10c4 0 7 2 8 5l14 0c-3-10-11-15-22-15z"/>
<glyph unicode="&#102;" d="M351 512c-12 0-23-3-32-9c-65-29-55-105-60-165c-1-1-3-6-7-4c-3 1-6 4-6 7c-4 46 3 93-24 129c-20 24-48 39-80 31c-29 0-50-29-64-51c-15-20-37-30-52-50c-16-22-17-57-2-80c34-45 90-46 144-45c8 2 20 4 27-3c2-3 0-7-2-8c-39-6-78 3-116-4c-30-4-58-30-66-58c-7-24-1-51 15-70c34-21 52-59 81-88c13-9 31-13 47-8c59 23 73 89 78 146c2 4 2 12 8 11c3 0 4-3 5-6c-4-65-2-133 27-187l46 1c-29 43-44 94-50 147c2 16-7 32 5 45c2 0 5 0 7-3c4-35 11-70 28-100c17-26 42-52 74-47c26 1 49 21 59 44c7 25 33 41 49 62c13 23 20 57 6 82c-31 55-105 39-157 34c-10 1-22-3-29 4c-1 3 1 6 3 8c25 7 52 5 78 8c38 5 78 20 96 58c10 20 7 48-5 67l-2 3l-2 2l-2 2l-3 2l-2 2l-2 2l-2 2l-3 1l-5 4l-5 3l-5 3l-5 4l-7 5l-2 2l-5 3l-2 2l-2 2l-2 3l-2 2l-1 2l-2 3l-2 2l-1 3l-1 3l-2 3c-5 11-15 20-25 27c-10 6-24 10-37 10z m26-62l11-11l-1-2l-2-2l-1-1l-2-2l-1-2l-2-1l-3-4l-3-3l-4-3l-1-2l-2-1l-2-2l-1-1l25-26l1 0l26 25l12-13l-66-63l-12 12c8 9 18 18 26 26l-26 26l-26-25l-12 12l4 5l61 58l1 0z m-254-14c23-18 46-39 68-59l0-1c-4-4-8-9-12-13l-27 24l-25-27l27-24c-3-5-7-9-11-13l-68 60c4 5 7 8 11 13l28-24l24 27c-8 8-18 16-26 24c3 5 8 9 11 13z m249-211l71-56l0 0l-11-14c-9 5-18 15-28 22l-23-29l28-23c-3-4-7-9-11-13l-4 2l-68 54l12 14l28-22c8 8 15 18 23 28l-1 2l-27 20z m-235-6l12-13l-26-25l24-26l28 24l11-13l-2-2l-65-59l-12 12l27 25c-8 10-17 18-25 27c-9-8-18-16-27-24c-4 4-9 8-12 12z"/>
<glyph unicode="&#103;" d="M455 94c10-17 12-32 6-44c-7-12-20-18-40-18l-330 0c-20 0-33 6-40 18c-6 12-4 27 6 44l144 226l0 114l-18 0c-5 0-9 2-13 6c-4 3-5 8-5 13c0 5 1 9 5 12c4 4 8 6 13 6l146 0c5 0 9-2 13-6c4-3 5-7 5-12c0-5-1-10-5-13c-4-4-8-6-13-6l-18 0l0-114z m-223 207l-78-123l204 0l-78 123l-6 9l0 124l-36 0l0-124z"/>
<glyph unicode="&#104;" d="M110 379c0 5-2 10-6 13c-3 4-8 6-13 6c-5 0-9-2-12-6c-4-3-6-8-6-13c0-5 2-9 6-12c3-4 7-6 12-6c5 0 10 2 13 6c4 3 6 7 6 12z m329-164c0 7-2 14-6 23c-4 9-10 13-16 13c3 4 6 8 8 14c1 6 2 11 2 16c0 13-5 24-15 34c4 6 5 13 5 20c0 7-1 14-5 21c-3 7-7 12-13 15c1 5 1 11 1 16c0 16-4 28-14 36c-9 7-22 11-39 11l-36 0c-25 0-58-7-98-21c-1 0-4-1-8-3c-5-1-8-2-10-3c-3-1-6-2-10-3c-5-2-8-3-11-4c-3 0-6-1-10-1c-3-1-6-1-9-1l-9 0l0-183l9 0c3 0 7-1 11-3c3-1 7-4 11-7c4-4 8-7 11-11c3-3 7-7 11-12c5-5 8-9 10-12c3-3 6-7 9-12c4-5 6-8 7-9c10-13 18-21 22-26c8-8 13-18 17-31c3-13 6-24 9-36c2-11 5-19 10-24c19 0 31 4 37 13c6 9 9 23 9 42c0 11-4 26-14 46c-9 19-13 34-13 45l100 0c10 0 18 4 26 11c7 8 11 16 11 26z m36 0c0-20-7-37-21-52c-15-14-32-21-52-21l-50 0c9-19 14-37 14-55c0-23-4-40-10-53c-7-13-17-23-29-29c-13-6-28-10-44-10c-9 0-18 4-25 11c-7 6-12 14-16 23c-4 10-6 18-7 26c-1 8-3 16-5 24c-2 9-5 15-9 19c-9 9-19 21-30 36c-20 25-33 40-40 44l-78 0c-10 0-19 4-26 11c-7 7-10 16-10 26l0 183c0 10 3 18 10 26c7 7 16 10 26 10l82 0c5 0 18 4 40 12c24 8 45 14 64 19c18 4 37 6 57 6l32 0c26 0 48-8 64-23c17-15 25-35 25-61l0-2c11-15 17-31 17-51c0-4 0-8-1-12c7-13 11-26 11-41c0-7-1-14-3-20c10-14 14-29 14-46z"/>
<glyph unicode="&#105;" d="M110 123c0 5-2 10-6 13c-3 4-8 6-13 6c-5 0-9-2-12-6c-4-3-6-8-6-13c0-5 2-9 6-12c3-4 7-6 12-6c5 0 10 2 13 6c4 3 6 7 6 12z m329 165c0 10-4 18-11 26c-8 7-16 11-26 11l-100 0c0 11 4 26 13 45c10 19 14 35 14 46c0 19-3 32-9 41c-6 9-18 14-37 14c-5-5-8-13-10-24c-3-12-6-24-9-36c-4-13-9-23-17-32c-4-4-12-13-22-26c-1-1-3-3-7-8c-3-5-6-9-9-12c-2-3-5-7-10-12c-4-5-8-9-11-13c-3-3-7-6-11-10c-4-3-8-6-11-7c-4-2-8-3-11-3l-9 0l0-183l9 0c3 0 6 0 9-1c4 0 7-1 10-2c3 0 6-1 11-3c4-1 7-2 10-3c2-1 5-2 10-4c4-1 7-2 8-3c40-13 73-20 98-20l34 0c37 0 55 15 55 47c0 5 0 11-1 16c6 3 10 8 13 15c4 7 5 14 5 21c0 7-1 14-5 20c10 10 15 21 15 34c0 5-1 10-2 16c-2 6-5 10-8 13c6 1 12 5 16 14c4 9 6 16 6 23z m36 0c0-17-4-32-14-46c2-7 3-13 3-20c0-15-4-28-11-41c1-4 1-8 1-12c0-20-6-37-17-51c0-27-8-48-24-63c-17-15-38-23-65-23l-37 0c-18 0-37 2-54 6c-18 5-39 11-62 19c-22 8-35 12-40 12l-82 0c-10 0-19 3-26 10c-7 7-10 16-10 26l0 183c0 10 3 19 10 26c7 7 16 11 26 11l78 0c7 4 20 19 40 44c11 14 21 26 30 36c5 5 8 13 10 25c2 11 5 23 9 36c4 13 9 23 18 31c7 7 16 10 25 10c16 0 31-3 44-9c12-6 22-16 29-29c6-13 10-31 10-53c0-18-5-36-14-55l50 0c20 0 37-7 52-22c14-14 21-31 21-51z"/>
<glyph unicode="&#106;" d="M426 130c0-8-3-14-8-20l-39-39c-6-5-12-8-20-8c-7 0-14 3-19 8l-84 84l-84-84c-5-5-12-8-20-8c-7 0-14 3-19 8l-39 39c-5 6-8 12-8 20c0 7 3 14 8 19l84 84l-84 84c-5 5-8 12-8 20c0 7 3 14 8 19l39 39c5 5 12 8 19 8c8 0 15-3 20-8l84-84l84 84c5 5 12 8 19 8c8 0 14-3 20-8l39-39c5-5 8-12 8-19c0-8-3-15-8-20l-84-84l84-84c5-5 8-12 8-19z"/>
<glyph unicode="&#107;" d="M477 346c0-8-2-14-8-20l-245-245c-6-6-12-8-20-8c-7 0-14 2-19 8l-142 142c-6 5-8 12-8 19c0 8 2 14 8 20l38 39c6 5 12 8 20 8c7 0 14-3 19-8l84-85l188 188c5 5 12 8 19 8c8 0 14-3 20-8l38-39c6-5 8-12 8-19z"/>
<glyph unicode="&#108;" d="M341 243c0 3 0 5-2 6c-2 2-4 3-6 3l-60 0l0 94c0 2-1 4-2 6c-2 1-4 2-6 2l-52 0c-2 0-4-1-6-2c-1-2-2-4-2-6l0-94l-60 0c-2 0-4-1-6-3c-2-1-2-3-2-6c0-2 0-4 2-6l94-94c1-1 3-2 6-2c2 0 5 1 6 2l94 94c1 2 2 4 2 6z m171-60c0-28-10-52-30-72c-20-20-44-30-72-30l-291 0c-32 0-61 12-84 35c-23 23-35 52-35 85c0 23 6 44 19 64c12 19 29 34 50 44c-1 5-1 9-1 11c0 38 14 70 40 97c27 26 59 40 97 40c28 0 53-8 76-24c23-15 40-36 50-61c13 11 28 16 45 16c18 0 34-6 48-20c13-13 20-29 20-48c0-14-4-26-11-37c23-5 42-17 57-36c15-19 22-40 22-64z"/>
<glyph unicode="&#109;" d="M201 160c0-8-1-15-3-23c-3-8-7-16-13-22c-6-7-12-10-20-10c-8 0-15 3-21 10c-6 6-10 14-12 22c-3 8-4 15-4 23c0 8 1 15 4 23c2 8 6 16 12 22c6 7 13 10 21 10c8 0 14-3 20-10c6-6 10-14 13-22c2-8 3-15 3-23z m183 0c0-8-1-15-4-23c-2-8-6-16-12-22c-6-7-13-10-21-10c-8 0-15 3-20 10c-6 6-10 14-13 22c-2 8-3 15-3 23c0 8 1 15 3 23c3 8 7 16 13 22c5 7 12 10 20 10c8 0 15-3 21-10c6-6 10-14 12-22c3-8 4-15 4-23z m46 0c0 23-7 42-20 58c-13 16-31 24-53 24c-8 0-27-2-56-6c-14-2-29-3-45-3c-16 0-31 1-45 3c-29 4-47 6-56 6c-22 0-40-8-53-24c-13-16-20-35-20-58c0-17 3-31 9-44c6-12 14-22 24-29c9-7 20-13 34-17c14-5 28-8 40-9c13-1 27-2 43-2l48 0c16 0 30 1 43 2c12 1 26 4 40 9c13 4 25 10 34 17c10 7 17 17 24 29c6 13 9 27 9 44z m64 50c0-39-6-71-18-94c-7-15-17-28-30-38c-13-11-26-19-40-25c-14-6-30-10-49-13c-18-4-34-6-49-7c-14-1-30-1-47-1c-15 0-29 0-41 1c-12 0-26 2-42 3c-16 2-31 5-44 9c-13 4-26 9-39 15c-13 6-24 13-34 23c-11 9-19 20-25 33c-12 23-18 55-18 94c0 45 13 83 39 113c-5 16-8 32-8 49c0 22 5 43 15 62c21 0 39-3 54-11c16-8 34-19 54-35c28 6 58 10 89 10c28 0 54-3 80-9c20 15 37 27 53 34c16 8 34 11 54 11c10-19 15-40 15-62c0-17-3-33-8-48c26-30 39-68 39-114z"/>
<glyph unicode="&#110;" d="M402 233l0 37c0 5-2 9-5 13c-4 3-8 5-13 5l-91 0l0 91c0 5-2 10-6 13c-4 4-8 6-13 6l-36 0c-5 0-10-2-13-6c-4-3-6-8-6-13l0-91l-91 0c-5 0-9-2-13-5c-4-4-5-8-5-13l0-37c0-5 1-9 5-13c4-3 8-5 13-5l91 0l0-92c0-5 2-9 6-12c3-4 8-6 13-6l36 0c5 0 9 2 13 6c4 3 6 7 6 12l0 92l91 0c5 0 9 2 13 5c3 4 5 8 5 13z m73 156l0-275c0-22-8-42-24-58c-16-16-35-24-58-24l-274 0c-23 0-42 8-58 24c-16 16-24 36-24 58l0 275c0 22 8 42 24 58c16 16 35 24 58 24l274 0c23 0 42-8 58-24c16-16 24-36 24-58z"/>
<glyph unicode="&#111;" d="M296 109l29 29c4 4 6 8 6 13c0 5-2 9-6 13l-87 87l87 88c4 4 6 8 6 13c0 5-2 9-6 13l-29 29c-3 4-8 5-13 5c-5 0-9-1-12-5l-130-130c-4-3-6-8-6-13c0-5 2-9 6-12l130-130c3-4 7-6 12-6c5 0 10 2 13 6z m179 142c0-39-9-76-29-110c-20-33-46-60-80-80c-34-19-70-29-110-29c-40 0-77 10-110 29c-34 20-60 47-80 80c-20 34-29 71-29 110c0 40 9 77 29 111c20 33 46 60 80 79c33 20 70 30 110 30c40 0 76-10 110-30c34-19 60-46 80-79c20-34 29-71 29-111z"/>
<glyph unicode="&#112;" d="M369 182l30 29c3 4 5 8 5 13c0 5-2 9-5 13l-130 130c-4 3-8 5-13 5c-5 0-9-2-13-5l-130-130c-3-4-5-8-5-13c0-5 2-9 5-13l30-29c3-4 7-5 12-5c5 0 10 1 13 5l88 88l88-88c3-4 8-5 13-5c4 0 9 1 12 5z m106 69c0-39-9-76-29-110c-20-33-46-60-80-80c-34-19-70-29-110-29c-40 0-77 10-110 29c-34 20-60 47-80 80c-20 34-29 71-29 110c0 40 9 77 29 111c20 33 46 60 80 79c33 20 70 30 110 30c40 0 76-10 110-30c34-19 60-46 80-79c20-34 29-71 29-111z"/>
<glyph unicode="&#113;" d="M269 136l130 130c3 4 5 8 5 13c0 5-2 9-5 13l-30 29c-3 3-8 5-12 5c-5 0-10-2-13-5l-88-88l-88 88c-3 3-8 5-13 5c-5 0-9-2-12-5l-30-29c-3-4-5-8-5-13c0-5 2-9 5-13l130-130c4-3 8-5 13-5c5 0 9 2 13 5z m206 115c0-39-9-76-29-110c-20-33-46-60-80-80c-34-19-70-29-110-29c-40 0-77 10-110 29c-34 20-60 47-80 80c-20 34-29 71-29 110c0 40 9 77 29 111c20 33 46 60 80 79c33 20 70 30 110 30c40 0 76-10 110-30c34-19 60-46 80-79c20-34 29-71 29-111z"/>
<glyph unicode="&#114;" d="M241 109l130 130c4 3 6 7 6 12c0 5-2 10-6 13l-130 130c-3 4-8 5-12 5c-5 0-10-1-13-5l-29-29c-4-4-6-8-6-13c0-5 2-9 6-13l87-88l-87-87c-4-4-6-8-6-13c0-5 2-9 6-13l29-29c3-4 8-6 13-6c4 0 9 2 12 6z m234 142c0-39-9-76-29-110c-20-33-46-60-80-80c-34-19-70-29-110-29c-40 0-77 10-110 29c-34 20-60 47-80 80c-20 34-29 71-29 110c0 40 9 77 29 111c20 33 46 60 80 79c33 20 70 30 110 30c40 0 76-10 110-30c34-19 60-46 80-79c20-34 29-71 29-111z"/>
<glyph unicode="&#115;" d="M354 254l-92 20l43 199l-147-220l74-16l-47-219z"/>
<glyph unicode="&#116;" d="M416 128l-144 0c-4 0-8-2-11-5c-3-3-5-7-5-11c0-4 2-8 5-11c3-3 7-5 11-5l96 0c4 0 8-2 11-5c3-3 5-7 5-11l0-16c0-18-6-33-19-45c-12-13-27-19-45-19l-96 0c-18 0-33 6-45 19c-13 12-19 27-19 45l0 112c0 18 4 30 11 37c7 7 19 11 37 11l128 0c18 0 35 9 53 27c18 18 27 35 27 53l0 80l32 0c18 0 33-6 45-19c13-12 19-27 19-45l0-96c0-24-10-46-30-66c-20-20-42-30-66-30z m-128-88c0-2 1-4 2-6c2-1 4-2 6-2l16 0c2 0 4 1 6 2c1 2 2 4 2 6l0 16c0 2-1 4-2 6c-2 1-4 2-6 2l-16 0c-2 0-4-1-6-2c-1-2-2-4-2-6z m32 216l-128 0c-18 0-33-6-45-19c-13-12-19-27-19-45l0-64l-64 0c-18 0-33 6-45 19c-13 12-19 27-19 45l0 96c0 24 10 46 30 66c20 20 42 30 66 30l144 0c4 0 8 2 11 5c3 3 5 7 5 11c0 4-2 8-5 11c-3 3-7 5-11 5l-96 0c-4 0-8 2-11 5c-3 3-5 7-5 11l0 16c0 18 6 33 19 45c12 13 27 19 45 19l128 0c18 0 33-6 45-19c13-12 19-27 19-45l0-128c0-18-6-33-19-45c-12-13-27-19-45-19z m-96 216c0 2-1 4-2 6c-2 1-4 2-6 2l-16 0c-2 0-4-1-6-2c-1-2-2-4-2-6l0-16c0-2 1-4 2-6c2-1 4-2 6-2l16 0c2 0 4 1 6 2c1 2 2 4 2 6z"/>
<glyph unicode="&#117;" d="M256 512l-256-256l64 0l0-256l384 0l0 256l64 0z m128-448l-96 0l0 96l-64 0l0-96l-96 0l0 230l128 90l128-90z"/>
<glyph unicode="&#118;" d="M64 512l384-256l-384-256z"/>
<glyph unicode="&#119;" d="M480 320l0 64l-80 0l16 128l-64 0l-16-128l-128 0l16 128l-64 0l-16-128l-112 0l0-64l104 0l-16-128l-88 0l0-64l80 0l-16-128l64 0l16 128l128 0l-16-128l64 0l16 128l112 0l0 64l-104 0l16 128z m-168-128l-128 0l16 128l128 0z"/>
<glyph unicode="&#120;" d="M512 64l0 192l-128 0c0 71 57 128 128 128l0 64c-106 0-192-86-192-192l0-192z m-320 0l0 192l-128 0c0 71 57 128 128 128l0 64c-106 0-192-86-192-192l0-192z"/>
<glyph unicode="&#121;" d="M448 512l-256 0c-71 0-128-57-128-128c0-71 57-128 128-128l0-256l64 0l0 448l64 0l0-448l64 0l0 448l64 0z"/>
<glyph unicode="&#122;" d="M512 320l-192 0l0 192l-128 0l0-192l-192 0l0-128l192 0l0-192l128 0l0 192l192 0z"/>
<glyph unicode="&#65;" d="M1 160l256-64l256 64l0-64l-256-64l-256 64z m0 128l256-64l256 64l0-64l-256-64l-256 64z m0 128l256 64l256-64l0-64l-256-64l-256 64z"/>
<glyph unicode="&#66;" d="M1 128l256-64l256 64l0-64l-256-64l-256 64z m0 128l256-64l256 64l0-64l-256-64l-256 64z m0 128l256-64l256 64l0-64l-256-64l-256 64z m0 128l256-64l256 64l0-64l-256-64l-256 64z"/>
<glyph unicode="&#67;" d="M511 345l-6-38c0 0-8 70-19 97c-15 40-23 40-23 40c11-27 9-42 9-42c0 0-19 51-69 68c-55 18-85 13-88 12c-1 0-1 0-2 0c0 0 1 0 1 0c0 0 0 0 0 0c0 0 61-11 72-26c0 0-26 0-51-7c-2 0 94-12 114-108c0 0-11 22-24 26c9-26 7-76-1-100c-1-3-3 14-19 21c6-37 0-95-25-112c-2-1 16 58 3 35c-71-109-156-50-193-24c19-4 56 0 72 13c0 0 0 0 0 0c18 12 29 21 38 19c9-3 16 7 8 15c-7 9-25 20-49 14c-17-4-38-23-70-4c-25 14-27 27-27 35c0 3 1 6 2 8c3 8 11 11 16 12c8-1 15-3 23-7c0 2 0 5 0 9c0 2 0 6-1 11c-1 5-2 10-4 15c0 0 0 0 0 0c0 0 0 0 0 0c1 0 1 0 1 0c0 0 0 0 0 0c0 1 0 1 0 1c0 2 6 6 13 11c6 5 13 9 19 13c5 3 8 5 9 6c1 0 1 0 1 1c0 0 1 0 1 0c0 0 0 0 0 0c2 2 6 6 7 15c0 0 0 0 0 0c0 0 0 0 0 0c0 1 0 1 0 1c0 0 0 0 0 0c0 1 0 1 0 1c0 0 0 0 0 0c1 1 0 2 0 3c0 1 0 1 0 1c0 0 0 1 0 1c0 0 0 0 0 0c0 0 0 0 0 0c0 0 0 0 0 0c0 0 0 0 0 0c0 0 0 0 0 0c-1 2-4 3-18 3c0 0 0 0 0 0c-5 0-12 0-22 0c-17 0-26 16-29 23c4 22 16 38 35 49c0 0 0 0 0 0c4 2-45 0-68-28c-20 5-37 4-52 1c-3 0-6 0-11 1c-10 9-24 26-25 46c0 0 0 0 0 0c0 0 0 0 0 0c0 0-30-23-26-87c0-1 0-2 0-3c-8-11-12-20-12-22c-8-15-15-37-21-71c0 0 4 13 13 28c-7-19-11-48-9-93c0 0 1 10 4 24c2-27 11-61 34-101c45-77 113-116 189-122c13-1 27-1 40 0c2 0 3 1 4 1c16 1 31 3 47 7c212 51 189 308 189 308z"/>
<glyph unicode="&#68;" d="M129 289l-73 127c47 58 119 96 200 96c94 0 176-50 220-126l-209 0c-3 1-7 1-11 1c-61 0-112-42-127-98z m219 60l146 0c12-28 18-60 18-93c0-140-113-254-253-256l105 181c14 22 23 47 23 75c0 37-15 70-39 93z m-185-93c0 51 42 93 93 93c51 0 93-42 93-93c0-51-42-93-93-93c-51 0-93 42-93 93z m128-126l-73-127c-123 18-218 125-218 253c0 46 12 88 33 126l104-182c21-44 67-75 119-75c12 0 24 2 35 5z"/>
<glyph unicode="&#69;" d="M396 240c-1 65 53 96 55 97c-30 44-77 50-94 51c-39 4-77-23-98-23c-20 0-51 23-84 22c-44-1-84-25-106-64c-45-79-12-195 32-258c22-31 48-66 81-65c33 1 45 21 84 21c39 0 50-21 85-20c35 0 57 31 78 63c25 36 35 71 35 72c0 1-68 27-68 104z m-65 190c18 22 30 52 27 82c-26-1-57-17-75-39c-17-19-32-50-28-79c29-2 58 15 76 36z"/>
<glyph unicode="&#70;" d="M256 512c-141 0-256-115-256-256c0-141 115-256 256-256c141 0 256 115 256 256c0 141-115 256-256 256z m152-408c-20-20-43-35-68-46c-7-3-13-5-20-7l0 38c0 20-7 35-21 44c9 1 17 2 24 4c7 1 15 4 23 6c8 3 15 7 22 11c6 4 12 9 18 15c6 6 11 13 15 21c4 8 7 18 10 29c2 11 3 23 3 36c0 26-8 48-25 66c8 20 7 42-3 65l-6 1c-4 1-12-1-23-5c-11-4-24-11-38-21c-20 6-41 8-62 8c-21 0-42-2-61-8c-9 6-18 11-25 15c-8 4-15 7-19 8c-5 2-10 2-14 3c-4 0-6 0-8 0c-1 0-2 0-2-1c-9-23-10-45-3-65c-16-18-25-40-25-66c0-13 1-25 4-36c2-11 5-21 9-29c4-8 9-15 15-21c6-6 12-11 19-15c6-4 13-8 21-11c8-2 16-5 23-6c8-2 15-3 24-4c-14-9-20-24-20-44l0-39c-8 2-15 5-23 8c-25 11-48 26-68 46c-20 20-35 43-46 68c-11 27-17 55-17 84c0 29 6 57 17 84c11 25 26 48 46 68c20 20 43 35 68 46c27 11 55 17 84 17c29 0 57-6 84-17c25-11 48-26 68-46c20-20 35-43 46-68c11-27 17-55 17-84c0-29-6-57-17-84c-11-25-26-48-46-68z"/>
<glyph unicode="&#71;" d="M324 480c14 0 29-3 42-8c13-6 24-14 33-25c16-21 21-49 14-84c-9-38-28-70-55-92c-28-21-62-32-100-32l-120 0l-32-152l-66 0l85 393l199 0m-181-218l102 0c24 0 48 9 67 26c20 16 34 37 39 61c7 26 2 52-13 72c-14 19-37 30-62 30l-90 0l-43-189m181 250l-224 0l-100-457l76 0l-12-55l132 0l32 151l94 0c90 0 166 56 186 150c17 79-21 126-68 146c13-7 24-16 33-27c17-23 22-54 14-93c-8-40-25-73-51-97c-4-5-9-10-14-14c-28-21-62-33-100-33l-120 0l-32-151l-66 0l5 23l23 0l32 152l94 0c90 0 166 55 186 149c23 107-54 156-120 156z m-141-218l28 125l65 0c32 0 54-28 44-63c-8-34-42-62-75-62z"/>
<glyph unicode="&#72;" d="M427 512l-342 0c-47 0-85-38-85-85l0-342c0-47 38-85 85-85l342 0c47 0 85 38 85 85l0 342c0 47-38 85-85 85z m0-64c4 0 7-1 11-3l-182-150l-182 150c4 2 7 3 11 3z m-342-384c-1 0-2 0-2 0l112 157l-14 14l-117-116l0 305l192-232l192 232l0-305l-117 116l-14-14l113-157c-1 0-2 0-3 0z"/>
<glyph unicode="&#73;" d="M440 447c13-7 24-16 33-27c17-23 22-54 14-93c-8-40-25-73-51-97c-4-5-9-10-14-14c-28-21-62-33-100-33l-120 0l-32-151l-66 0l5 23l23 0l32 152l94 0c90 0 166 55 186 149c23 107-54 156-120 156l-224 0l-100-457l76 0l-12-55l132 0l32 151l94 0c90 0 166 56 186 150c17 79-21 126-68 146z m-229-28l65 0c32 0 54-28 44-63c-8-34-42-62-75-62l-62 0z"/>
<glyph unicode="&#74;" d="M427 512l-342 0c-47 0-85-38-85-85l0-342c0-47 38-85 85-85l342 0c47 0 85 38 85 85l0 342c0 47-38 85-85 85z m-288-416c-24 0-43 20-43 44c0 24 19 43 43 43c25 0 44-19 44-43c0-24-19-44-44-44z m110 0c0 41-16 79-45 108c-29 29-67 45-108 45l0 63c119 0 216-97 216-216z m111 0c0 146-119 264-264 264l0 63c180 0 327-147 327-327z"/>
<glyph unicode="&#75;" d="M68 137c-37 0-68-31-68-69c0-37 31-67 68-67c38 0 68 30 68 67c0 38-30 69-68 69z m-68 201l0-98c64 0 124-25 169-70c46-46 70-106 70-170l99 0c0 186-152 338-338 338z m0 174l0-98c228 0 414-186 414-414l98 0c0 282-230 512-512 512z"/>
<glyph unicode="&#76;" d="M267 501c-6 6-18 11-27 11l-192 0c-9 0-16-7-16-16l0-480c0-9 7-16 16-16l384 0c9 0 16 7 16 16l0 288c0 9-5 21-11 27z m149-469l-352 0l0 448l176 0c1 0 4-1 5-2l169-169c1-1 2-4 2-5z m16 480l-96 0c-9 0-11-5-5-11l106-106c6-6 11-4 11 5l0 96c0 9-7 16-16 16z"/>
<glyph unicode="&#77;" d="M421 217c-7 7-22 11-45 11c-16 0-34-1-54-4c-9 5-18 11-25 17c-19 18-35 43-45 71c0 2 1 4 1 7c0 0 11 61 8 82c0 3 0 4-1 6l-1 2c-3 7-9 14-18 14l-5 0c-10 0-19-5-21-13c-6-24 0-60 13-107l-3-8c-9-21-20-43-30-62l-1-2c-11-20-20-37-28-52l-9-4c-1-1-15-9-19-11c-30-17-49-38-52-53c-1-6-1-12 5-15l8-4c4-2 7-3 11-3c22 0 46 26 80 85c39 13 83 23 122 29c30-16 66-28 89-28c4 0 8 0 10 1c5 1 9 4 11 7c4 7 5 16 4 26c0 2-3 6-5 8z m-315-112c4 10 19 31 41 50c2 1 5 4 9 7c-24-37-40-52-50-57z m133 307c7 0 11-17 11-33c1-16-3-27-8-36c-4 13-6 32-6 45c0 0 0 24 3 24z m-40-219c5 9 10 18 15 27c12 23 20 41 26 56c11-21 26-38 42-52c2-2 5-4 7-6c-34-7-64-15-90-25z m215 2c-2-1-8-2-11-2c-13 0-28 6-49 15c8 1 15 1 22 1c12 0 16 0 28-3c12-3 13-10 10-11z m38 217l-72 72c-15 15-46 28-68 28l-240 0c-22 0-40-18-40-40l0-432c0-22 18-40 40-40l368 0c22 0 40 18 40 40l0 304c0 22-13 53-28 68z m-23-22c2-2 3-4 5-6l-82 0l0 82c2-2 4-3 6-5z m19-350c0-4-4-8-8-8l-368 0c-4 0-8 4-8 8l0 432c0 4 4 8 8 8l240 0c2 0 5 0 8-1l0-127l127 0c1-3 1-6 1-8z"/>
<glyph unicode="&#78;" d="M512 192l0-192l-512 0l0 192l64 0l0-128l384 0l0 128z m-416-32l320 0l0-64l-320 0z m8 69l13 63l313-70l-14-62z m36 129l27 58l290-136l-27-58z m356-27l-39-51l-254 195l28 37l29 0z"/>
<glyph unicode="&#79;" d="M304 185c-8-8-1-24-1-24l65-109c0 0 11-14 20-14c9 0 19 7 19 7l51 74c0 0 5 9 5 17c0 12-17 15-17 15l-122 39c0 0-12 3-20-5z m-6 55c6-11 24-7 24-7l121 35c0 0 17 7 19 16c2 9-3 20-3 20l-58 68c0 0-5 9-15 9c-12 1-19-13-19-13l-68-108c0 0-6-10-1-20z m-57 42c14 4 16 24 16 24l-1 173c0 0-2 22-11 27c-15 10-20 5-24 4l-101-37c0 0-10-4-15-12c-7-11 8-29 8-29l104-142c0 0 11-11 24-8z m-25-70c0 13-16 21-16 21l-108 55c0 0-17 7-24 2c-6-3-12-10-12-15l-7-87c0 0-1-15 3-22c5-10 23-3 23-3l127 28c5 3 13 3 14 21z m31-47c-10 6-23-6-23-6l-85-93c0 0-11-14-8-23c2-8 7-12 13-15l85-27c0 0 10-2 18 0c11 3 9 21 9 21l2 126c0 0-1 12-11 17z"/>
<glyph unicode="&#80;" d="M488 223c1 10 2 21 2 32c0 129-105 234-235 234c-13 0-26-1-38-3c-22 14-48 22-77 22c-77 0-140-62-140-140c0-28 8-54 23-76c-2-12-3-25-3-37c0-129 105-234 235-234c14 0 29 1 43 4c21-14 46-21 74-21c77 0 140 62 140 140c0 29-9 57-24 79z m-211-141c-75-3-110 13-142 43c-36 34-21 72 8 74c29 2 46-33 62-43c15-10 75-32 106 4c34 39-23 59-64 65c-60 9-134 41-128 104c5 63 53 95 103 100c64 6 106-10 139-38c38-32 18-69-7-72c-24-3-51 54-104 55c-55 0-93-58-25-74c68-17 141-23 167-86c26-62-40-128-115-132z"/>
<glyph unicode="&#81;" d="M128 192c0 18 14 32 32 32c18 0 32-14 32-32c0-18-14-32-32-32c-18 0-32 14-32 32z m192 0c0 18 14 32 32 32c18 0 32-14 32-32c0-18-14-32-32-32c-18 0-32 14-32 32z m2-68c8 6 20 5 26-4c7-8 5-20-3-26c-23-18-58-30-89-30c-31 0-66 12-89 30c-8 6-10 18-3 26c6 9 18 10 26 4c14-11 40-22 66-22c26 0 52 11 66 22z m190 132c0 35-29 64-64 64c-24 0-45-13-56-33c-33 18-73 30-117 32l39 86l73-21c6-19 24-32 45-32c27 0 48 21 48 48c0 27-21 48-48 48c-18 0-34-10-42-25l-82 23c-9 3-18-2-22-10l-52-117c-43-3-82-14-114-32c-11 20-32 33-56 33c-35 0-64-29-64-64c0-26 16-49 38-59c-4-12-6-24-6-37c0-88 100-160 224-160c124 0 224 72 224 160c0 13-2 25-6 37c22 10 38 33 38 59z m-80 162c10 0 18-8 18-18c0-10-8-18-18-18c-10 0-18 8-18 18c0 10 8 18 18 18z m-400-162c0 18 14 32 32 32c13 0 24-8 29-18c-17-13-31-28-41-44c-12 5-20 17-20 30z m224-218c-103 0-186 55-186 122c0 67 83 122 186 122c103 0 186-55 186-122c0-67-83-122-186-122z m204 188c-10 16-24 31-41 44c5 10 16 18 29 18c18 0 32-14 32-32c0-13-8-25-20-30z"/>
<glyph unicode="&#82;" d="M284 144c-41-20-79-19-105-17c-30 2-55 10-66 17c-6 5-15 3-20-3c-4-7-3-16 4-21c17-11 48-20 80-22c5-1 11-1 18-1c28 0 63 3 101 20c7 4 11 12 7 19c-3 8-12 11-19 8z m161 21c2 126 15 365-227 346c-239-19-175-272-179-356c-3-45-18-99-39-155l65 0c6 24 11 47 13 69c4-3 8-5 13-8c7-4 13-10 20-16c15-14 32-30 67-32c2 0 4 0 6 0c35 0 58 15 77 27c9 6 17 11 25 14c21 6 39 17 53 30c2 2 4 5 6 7c7-28 18-60 29-91l138 0c-33 51-67 101-67 165z m-383 69c0 0 0 0 0 0c-2 41 17 76 44 77c27 2 50-30 53-72c0 0 0 0 0 0c0-2 0-4 0-6c-9-2-16-5-23-9c0 0 0 1 0 1c0 0 0 0 0 0c-2 23-15 41-28 39c-13-1-22-21-20-45c0 0 0 0 0 0c1-10 4-19 8-26c-1-1-4-3-7-5c-2-2-5-4-9-7c-10 13-17 32-18 53z m271-102c-1-22-30-42-56-51l0 0c-11-3-21-9-31-16c-18-11-36-23-62-23c-1 0-3 0-5 0c-24 2-35 12-49 25c-7 7-15 14-25 19l0 0c-21 13-35 28-35 41c-1 6 2 12 8 16c14 10 22 17 28 21c7 5 9 6 10 8c1 1 3 2 4 3c12 12 32 32 64 32c19 0 40-8 63-22c11-7 20-10 32-14c8-3 17-6 29-12l0 0c12-4 25-13 25-27z m-7 51c-2 1-4 2-7 3c-11 5-19 8-27 11c4 8 7 18 7 28c0 0 0 0 0 0c1 27-13 48-30 48c-16 0-30-21-31-47c0 0 0 0 0 0c0-1 0-2 0-3c-10 5-21 8-31 10c0 1 0 2 0 3c0 0 0 0 0 0c-1 48 29 88 66 89c37 1 68-37 69-85c0 0 0 0 0 0c0-22-6-41-16-57z"/>
<glyph unicode="&#83;" d="M256 96c-10 0-19 5-29 15c-4 4-4 10 0 14c4 4 10 4 14 0c6-6 11-9 15-9c4 0 9 3 15 9c4 4 10 4 14 0c4-4 4-10 0-14c-10-10-19-15-29-15z m-256 153c0-25 2-47 6-68c5-20 11-37 18-52c8-15 18-28 30-40c12-11 24-20 38-27c14-8 30-13 48-18c18-4 36-8 54-9c19-2 39-3 61-3c23 0 43 1 62 3c18 1 36 5 54 9c18 5 34 10 48 18c14 7 27 16 39 27c12 12 22 25 29 40c8 15 14 32 18 52c5 21 7 43 7 68c0 45-14 83-42 116c2 4 3 9 5 15c1 5 2 13 3 23c1 10 1 22-1 35c-2 14-6 27-11 41l-4 1c-3 0-7 0-13-1c-6-1-13-2-21-5c-8-2-19-7-31-14c-13-6-27-15-41-26c-24 8-58 15-100 15c-42 0-76-7-100-15c-14 11-28 19-41 26c-13 7-23 12-31 14c-8 3-15 4-21 5c-7 1-11 1-13 1c-2 0-3-1-4-1c-5-14-9-27-11-41c-2-13-2-25-1-35c1-10 2-18 3-23c2-6 3-11 5-15c-28-32-42-71-42-116z m68-57c0 29 11 56 32 79c7 7 14 13 23 17c8 3 18 5 28 6c11 0 21 0 31 0c10-1 22-2 36-3c15-1 27-2 38-2c10 0 23 1 37 2c14 1 27 2 36 3c10 0 20 0 31 0c11-1 21-3 29-6c9-4 16-10 22-17c22-23 32-50 32-79c0-17-1-32-5-45c-3-13-8-25-13-34c-6-9-13-16-23-22c-10-7-19-11-29-15c-9-3-21-6-35-8c-14-2-27-3-39-3c-11-1-26-1-43-1c-18 0-32 0-43 1c-12 0-25 1-39 3c-15 2-27 5-36 8c-9 4-18 8-28 15c-10 6-18 13-23 22c-5 9-10 21-13 34c-4 13-6 28-6 45z m60 16c0 27 14 48 32 48c18 0 32-21 32-48c0-27-14-48-32-48c-18 0-32 21-32 48z m192 0c0 27 14 48 32 48c18 0 32-21 32-48c0-27-14-48-32-48c-18 0-32 21-32 48z"/>
<glyph unicode="&#84;" d="M0 234c0-23 2-44 7-63c4-19 10-35 18-49c7-14 17-26 29-37c12-10 25-19 38-25c14-7 30-13 48-17c18-4 36-7 54-8c19-2 39-3 61-3c23 0 43 1 62 3c18 1 36 4 54 8c18 4 34 10 48 17c14 6 27 15 39 25c12 11 22 23 29 37c8 14 14 30 18 49c5 19 7 40 7 63c0 41-14 77-42 107c2 4 3 9 5 14c1 5 2 12 3 22c1 9 1 20-1 32c-2 13-6 25-11 38l-4 1c-2 0-7 0-13-1c-6 0-13-2-21-4c-8-2-19-7-31-13c-13-6-27-15-41-24c-24 6-58 10-100 10c-43 0-76-4-100-10c-14 9-28 18-41 24c-13 6-23 11-31 13c-8 2-15 4-21 4c-7 1-11 1-13 1c-2 0-3-1-4-1c-5-13-9-25-11-38c-2-12-2-23-1-32c1-10 2-17 3-22c2-5 3-10 5-14c-28-30-42-66-42-107z m63-63c0 24 11 46 33 66c6 6 14 11 22 14c9 3 19 5 30 5c11 0 21 0 31 0c10-1 23-2 37-3c15-1 28-1 38-1c11 0 24 0 38 1c15 1 27 2 37 3c10 0 21 0 32 0c11 0 21-2 29-5c9-3 17-8 23-14c22-20 33-42 33-66c0-14-2-27-5-38c-4-11-9-21-14-28c-6-8-14-14-24-19c-9-6-19-10-29-12c-9-3-21-5-36-7c-15-2-28-3-39-3c-12 0-27 0-45 0c-17 0-32 0-44 0c-11 0-25 1-39 3c-15 2-27 4-37 7c-9 2-19 6-29 12c-10 5-17 11-23 19c-6 7-10 17-14 28c-3 11-5 24-5 38z m257 5c0 27 14 48 32 48c18 0 32-21 32-48c0-27-14-48-32-48c-18 0-32 21-32 48z m-192 0c0 27 14 48 32 48c18 0 32-21 32-48c0-27-14-48-32-48c-18 0-32 21-32 48z"/>
<glyph unicode="&#85;" d="M427 512l-342 0c-47 0-85-38-85-85l0-342c0-47 38-85 85-85l342 0c47 0 85 38 85 85l0 342c0 47-38 85-85 85z m8-256l-83 0l0-224l-96 0l0 224l-46 0l0 73l46 0l0 48c0 65 28 103 104 103l88 0l0-79l-72 0c-21 0-24-11-24-32l0-40l96 0z"/>
<glyph unicode="&#86;" d="M288 0l-96 0l0 256l-64 0l0 88l64 0l0 52c0 72 19 116 104 116l71 0l0-88l-44 0c-33 0-35-13-35-36l0-44l79 0l-9-88l-70 0z"/>
<glyph unicode="&#87;" d="M511 443l-511 0l0-374l512 0l-1 278z"/>
<glyph unicode="&#88;" d="M230 182l-86-148l283 0l85 148z m258 42l-147 254l-170 0l146-254z m-342 212l-146-254l85-148l147 254z"/>
<glyph unicode="&#89;" d="M512 415c-19-9-39-14-60-17c21 13 38 34 46 58c-20-12-43-20-67-25c-19 20-46 33-77 33c-58 0-105-47-105-105c0-8 1-16 3-24c-87 4-165 46-216 110c-9-16-15-34-15-53c0-36 19-69 47-87c-17 0-33 5-47 13c0-1 0-1 0-2c0-50 36-93 84-103c-9-2-18-3-28-3c-7 0-13 0-20 2c14-42 53-73 99-73c-36-29-82-45-131-45c-8 0-17 0-25 1c46-30 102-47 161-47c193 0 299 160 299 299c0 4 0 9 0 13c20 15 38 34 52 55z"/>
<glyph unicode="&#90;" d="M430 263c0 0 10 128-107 142c-101 11-131-83-131-83c0 0-30 29-72 6c-36-23-30-65-30-65c0 0-81-16-81-99c2-83 88-84 88-84l166 0l-73 74l44 0l0 87l59 0l0-87l43 0l-73-74l153 0c0 0 81 0 93 79c5 87-79 104-79 104z"/>
<glyph unicode="&#48;" d="M248 201l-136-136l0 366l272 0l0-366z"/>
<glyph unicode="&#49;" d="M400 48l-256 0l0 352l112 0l0-146l57 43l55-43l0 146l64 0l0-320c0-18-14-32-32-32z m-87 270l-41-32l0 130l80 0l0-130z m-217 114l0-16c0-9 7-16 16-16l16 0l0-352l-16 0c-18 0-32 14-32 32l0 352c0 18 14 32 32 32l288 0c12 0 22-6 28-16l-316 0c-9 0-16-7-16-16z"/>
<glyph unicode="&#50;" d="M174 440l-116-76l80-64l118 72z m-116-205l116-76l82 68l-118 73z m198-8l82-68l116 76l-80 65z m198 137l-116 76l-82-68l118-72z m-198-152l-82-68l-35 23l0-25l117-70l117 70l0 25l-35-23z"/>
<glyph unicode="&#51;" d="M320 112l0-43l-202-1l0 43z m69 99l0-211l-334 0l0 211l34 0l0-177l266 0l0 177z m-265-26l201-18l-4-43l-201 19z m19 91l195-53l-11-41l-195 52z m47 99l174-102l-22-38l-174 103z m103 95l113-167l-35-24l-114 166z m129 42l35-199l-43-8l-35 200z"/>
<glyph unicode="&#52;" d="M104 108l66 0l0 198l-66 0z m71 259c-1 10-4 19-11 25c-6 6-15 10-26 10c-11 0-20-4-27-10c-7-6-11-15-11-25c0-9 4-17 10-24c7-7 16-10 27-10c11 0 20 3 27 10c7 7 11 15 11 24z m167-259l66 0l0 114c0 29-7 51-21 66c-14 15-32 23-55 23c-26 0-46-11-60-34l1 0l0 29l-66 0c0-12 0-78 0-198l66 0l0 111c0 7 0 12 2 16c2 7 7 12 12 17c6 5 13 7 22 7c22 0 33-15 33-45z m133 285l0-274c0-23-8-42-24-58c-16-16-35-24-58-24l-274 0c-23 0-42 8-58 24c-16 16-24 35-24 58l0 274c0 23 8 42 24 58c16 16 35 24 58 24l274 0c23 0 42-8 58-24c16-16 24-35 24-58z"/>
<glyph unicode="&#53;" d="M169 493l0-7c-35-6-74-17-105-43c-32-26-26-59 6-79c-7 51 67 79 97 70c-22-18-105-47-45-88c7-4 13-6 20-8c-23 43 36 55 58 59c-10-16-40-13-42-37c-3-24 30-33 42-36c36-9 80-10 116 2c13 4 47 19 38 45c-4 11-15 18-22 26c23 5 52-18 45-52c5 3 11 7 16 12c52 50-33 69-47 96c36-7 96-22 97-82c6 7 12 14 17 23c31 56-49 92-78 103c-10 3-21 3-28 15c43-4 91-19 128-48c17-13 36-37 28-67c-8-27-32-43-51-53c-46-24-99-37-149-40c-75-4-153-1-226 27c-25 10-56 18-75 44c-21 30-3 58 19 73c41 29 95 43 141 45z m25-137c15 7 29 10 44 12c12 1 22 1 34 0l19-2c6-2 31-7 22-22c-5-9-20-11-28-12c-22-5-82-12-91 24z m298 4c-6-48-46-64-77-73c-79-23-154-15-233-1c26 14 62-1 89 0c79 5 155 12 221 74z m-13-67c-12-53-63-55-97-61c-77-14-164 8-238 41c-29 13-68 33-77 76c23-13 43-34 66-46c106-53 242-75 346-10z m-25-56c-4-56-62-51-94-51c-80 0-206 7-257 103c26-6 51-31 77-43c82-36 195-66 274-9z m-36-29l-3-4z m-39-41c-44-55-155-29-193 26c28 2 62-22 91-28c34-7 68 2 102 2z m-182-7c47-37 97-34 149-34c-27-38-90-35-121-8c-11 9-28 23-28 42z m3-45c39-31 66-21 107-26c-19-32-60-34-85-13c-10 9-25 22-22 39z m60-63c-9-20-26-27-27-52c-17 14-36 38-42 63c26-10 42-14 69-11z"/>
<glyph unicode="&#54;" d="M136 333l0-283l-94 0l0 283z m6 88c0-14-4-26-14-35c-10-9-23-14-39-14c-16 0-29 5-38 14c-10 9-14 21-14 35c0 14 4 26 14 35c10 9 23 14 39 14c16 0 28-5 38-14c9-9 14-21 14-35z m333-208l0-163l-94 0l0 152c0 20-3 35-11 47c-8 11-20 17-36 17c-12 0-22-4-30-10c-9-7-15-15-19-25c-2-5-3-13-3-23l0-158l-94 0c1 76 1 138 1 185c0 47 0 76 0 85l-1 13l94 0l0-41c4 6 7 12 11 16c4 5 10 10 17 15c6 5 15 10 24 13c10 3 21 4 33 4c33 0 59-11 79-32c20-22 29-54 29-95z"/>
<glyph unicode="&#55;" d="M395 255c37-39 53-78 39-103c-14-25-56-30-108-18c-16-52-41-86-69-86c-29 0-54 34-70 86c-53-12-95-7-109 18c-14 25 2 64 39 104c-37 39-54 79-40 104c15 25 57 30 110 17c16 53 41 87 70 87c28 0 54-34 69-86c53 12 95 7 109-18c14-25-3-65-40-105z m-303 96c-11-19 4-51 36-84c13 13 29 26 45 38c2 20 6 39 10 57c-45 11-80 9-91-11z m80-69c-12-9-22-17-32-26c10-9 20-18 32-27c-1 9-1 18-1 27c0 9 0 18 1 26z m1-76c-16 13-32 25-45 38c-31-33-46-64-35-83c11-20 45-22 90-11c-4 17-8 36-10 56z m148-11c-7-5-14-10-22-14c-7-5-15-9-23-13c13-5 26-10 39-14c2 13 5 26 6 41z m-64-130c21 0 41 29 53 73c-17 5-35 12-54 21c-18-9-36-15-53-20c12-45 32-74 54-74z m-58 90c12 3 24 8 37 13c-8 4-16 8-23 13c-8 4-14 8-21 13c1-14 4-27 7-39z m-7 163c7 4 14 9 22 13c7 4 14 8 22 12c-13 6-26 11-38 14c-2-12-4-26-6-39z m65 129c-22 0-42-29-54-74c17-5 35-12 53-20c19 9 37 15 54 20c-12 45-32 74-53 74z m57-89c-12-4-25-9-38-15c7-4 15-8 22-12c8-5 16-10 24-14c-2 14-5 28-8 41z m10-64c-11 8-22 15-34 22c-12 7-23 13-34 18c-11-5-23-11-34-18c-11-7-22-14-32-21c-1-12-2-25-2-39c0-14 0-27 1-40c11-7 21-14 32-20c12-7 24-13 35-19c12 6 23 12 35 19c11 7 22 14 33 21c1 12 1 25 1 39c0 13 0 26-1 38z m95-133c11 19-4 50-35 83c-13-13-28-25-44-37c-2-20-5-40-10-57c44-11 78-8 89 11z m-77 69c11 8 21 17 30 25c-9 9-19 18-30 26c0-8 0-16 0-25c0-9 0-18 0-26z m78 121c-11 20-45 22-90 11c5-18 8-37 10-58c16-12 31-25 44-37c32 33 47 65 36 84z m-161-128c-19 0-34 15-34 34c0 19 15 35 34 35c19 0 34-16 34-35c0-19-15-34-34-34z"/>
<glyph unicode="&#56;" d="M404 440l-296 0c-20 0-36-16-36-36l0-296c0-20 16-36 36-36l296 0c20 0 36 16 36 36l0 296c0 20-16 36-36 36z m-132-198l0-88l-27 0l0 88l-65 119l30 0l29-57c8-16 14-28 21-43c6 14 13 27 21 43l30 57l30 0z"/>
<glyph unicode="&#57;" d="M374 40c0 0 5 32-28 71c32 90 37 172 37 172c0 0 66-15 66-80c0-112-75-163-75-163z m-182 39c0 0-45 142-45 201c0 26 3 50 8 71l202 0c4-21 7-45 7-71c0-58-44-201-44-201z m64 240c-23 0-41-19-41-41c0-23 18-41 41-41c23 0 41 18 41 41c0 22-18 41-41 41z m-9 183l0 56l16 0l0-54c18-13 68-56 90-137l-194 0c21 79 68 121 88 135z m-109-462c0 0-75 51-75 163c0 65 66 80 66 80c0 0 5-82 37-172c-33-39-28-71-28-71z m145-9l-13 14l-15-45l-17 45l-11-24l-17 42l92 0z"/>
<glyph unicode="&#33;" d="M270 416l146 0l0-148l-50 50l-47-47c10-18 17-40 17-63c0-71-58-128-128-128c-71 0-128 57-128 128c0 71 57 128 128 128c24 0 47-7 66-19l47 48z m-126-208c0-35 28-64 64-64c35 0 64 29 64 64c0 35-29 64-64 64c-36 0-64-29-64-64z"/>
<glyph unicode="&#34;" d="M289 212l0-52l64 0l0-64l-64 0l0-64l-65 0l0 64l-64 0l0 64l64 0l0 53c-55 14-96 64-96 123c0 71 57 128 128 128c71 0 128-57 128-128c0-59-40-109-95-124z m-33 188c-35 0-64-28-64-64c0-35 29-64 64-64c35 0 64 29 64 64c0 36-29 64-64 64z"/>
<glyph unicode="&#35;" d="M256 210l-65 54l-142-168l414 0l-141 169z m223 206l-445 0l222-187z m-148-142l149-178l0 304z m-299 126l0-304l149 178z"/>
<glyph unicode="&#36;" d="M322 209l157 128l-223 157l-222-157l157-128z m-124-16l-149-175l414 0l-149 174z m133 2l149-177l0 303z m-299 126l0-303l149 177z"/>
<glyph unicode="&#37;" d="M96 448c-9 0-16-7-16-16c0-9 7-16 16-16l320 0l0-336c0-18-14-32-32-32l-288 0c-18 0-32 14-32 32l8 0c13 0 24 11 24 24c0 13-11 24-24 24l-8 0l0 16l8 0c13 0 24 11 24 24c0 13-11 24-24 24l-8 0l0 16l8 0c13 0 24 11 24 24c0 13-11 24-24 24l-8 0l0 16l8 0c13 0 24 11 24 24c0 13-11 24-24 24l-8 0l0 16l8 0c13 0 24 11 24 24c0 13-11 24-24 24l-8 0l0 48c0 18 14 32 32 32l288 0c12 0 22-6 28-16z m72-248c4-9 9-16 17-23c7-7 17-11 27-15c11-3 23-5 36-5c13 0 25 2 35 6c10 3 18 8 25 15c7 6 12 12 15 18l-15 0c-5-7-13-13-23-18c-10-5-23-8-38-8c-14 0-26 2-38 7c-12 5-20 13-26 23c-7 10-10 22-10 36c0 13 3 26 10 38c6 11 14 20 25 27c11 6 24 9 37 9c12 0 22-2 32-7c10-5 17-12 22-20c5-9 7-18 7-27c0-8-2-16-5-24c-4-8-9-14-16-18c-5-4-9-6-12-6c-2 0-3 1-4 2c-1 1-2 2-2 4c0 1 1 5 3 13l12 58l-15 0l-3-13c-4 5-7 9-12 12c-4 2-9 4-14 4c-7 0-13-3-20-7c-7-5-13-12-18-21c-4-9-7-18-7-27c0-8 2-15 5-21c3-6 7-10 11-13c5-3 10-5 15-5c5 0 10 1 14 4c5 3 9 6 13 10c0-3 1-6 1-7c1-2 3-4 6-5c2-1 5-2 9-2c13 0 24 6 35 17c11 13 17 28 17 45c0 11-3 22-8 32c-7 11-16 20-27 26c-11 6-24 9-38 9c-19 0-34-5-47-13c-13-8-23-20-30-35c-6-13-8-26-8-40c0-13 2-25 7-35z m80 18c-3-3-7-6-10-8c-4-2-7-3-10-3c-5 0-10 2-13 6c-4 5-6 11-6 19c0 5 1 10 3 16c2 6 4 11 7 15c3 4 6 7 10 9c3 2 6 3 10 3c5 0 10-2 14-7c4-4 6-10 6-18c0-6-1-11-3-17c-2-6-5-11-8-15z m-168 142c0-4-4-8-8-8l-16 0c-4 0-8 4-8 8c0 4 4 8 8 8l16 0c4 0 8-4 8-8z m-24-56l16 0c4 0 8-4 8-8c0-4-4-8-8-8l-16 0c-4 0-8 4-8 8c0 4 4 8 8 8z m0-64l16 0c4 0 8-4 8-8c0-4-4-8-8-8l-16 0c-4 0-8 4-8 8c0 4 4 8 8 8z m0-64l16 0c4 0 8-4 8-8c0-4-4-8-8-8l-16 0c-4 0-8 4-8 8c0 4 4 8 8 8z m0-64l16 0c4 0 8-4 8-8c0-4-4-8-8-8l-16 0c-4 0-8 4-8 8c0 4 4 8 8 8z m408 241l-32 0l0 48l32 0z m0-65l-32 0l0 48l32 0z m0-63l-32 0l0 48l32 0z"/>
<glyph unicode="&#38;" d="M134 179c-24 0-45-20-45-45c0-24 21-44 45-44c25 0 45 20 45 44c0 25-20 45-45 45z m-13 124c-1 0-1 0-1 0l-18 0c-9-1-15-8-16-17l0-32l1 0c1-8 7-14 15-15l18 0c0 0 0 0 1 0c65 0 118-53 119-118l0-18c1-9 8-15 17-16l32 0l0 1c8 1 14 7 15 15l0 18c-1 100-83 182-183 182z m305-182c-1 167-138 304-305 304c-1 0-1 0-1 0l-18 0l0-1c-9-1-15-8-16-17l0-31l1 0c1-8 7-15 15-16l18 0c0 0 0 0 1 0c132 0 240-107 240-239l0-18c1-9 9-15 17-16l32 0l0 1c8 1 14 7 15 15l1 0z"/>
<glyph unicode="&#39;" d="M122 379l38 0c2 0 4 1 4 3c0 0-1 33-1 42c0 7 2 13 4 19l2 2c-1 0-1 0-1 0l-73-72c0-1 0-1 0-1c1 1 4 2 4 2c6 3 14 5 23 5z m292 7c-3 16-12 24-21 27c-9 4-28 7-51 10c-19 2-42 2-55 2c-2 11-10 21-18 24c-23 10-59 7-68 5c-8-2-16-7-20-13c-3-4-5-10-5-17c0-5 0-15 0-24c0-9 0-18 0-18c0-8-6-14-15-14l-37 0c-8 0-14-2-19-4c-5-2-8-5-10-8c-5-7-6-15-6-24c0 0 0-7 1-20c2-10 13-83 24-105c4-9 7-12 15-16c18-8 59-16 79-19c19-2 31-7 39 8c0 0 1 4 3 9c6 19 7 36 7 48c0 1 2 2 2 0c0-8-2-39 21-47c10-3 28-6 48-9c17-2 30-8 30-53c0-27-6-31-36-31c-24 0-33-1-33 19c0 15 15 14 27 14c5 0 1 3 1 13c0 9 6 15 0 15c-39 1-62 0-62-49c0-45 17-53 73-53c43 0 59 1 77 58c4 11 12 44 17 101c4 36-3 144-8 171z m-76-119c-5 0-11 0-16-1c2 11 6 24 22 24c18-1 21-18 21-29c-8 3-17 5-27 6z"/>
<glyph unicode="&#40;" d="M266 328c-22-2-44-4-65-11c-44-13-67-43-66-87c0-39 23-65 63-70c25-2 49 2 70 19c6 5 11 10 17 14c8-9 16-18 25-27c5-6 10-6 16-1c11 10 22 19 33 29c6 5 7 9 1 15c-12 15-17 32-17 51c1 35 1 70 0 104c-1 27-15 47-39 58c-38 16-76 16-113-1c-26-11-41-31-47-58c-2-9 0-12 9-13c13-2 26-3 39-5c7-1 11 1 13 8c4 21 25 32 45 29c13-2 23-10 25-22c1-10 1-21 2-31c-2 0-3-1-3-1c-3 0-5 0-8 0z m-1-101c-6-10-14-17-26-19c-19-3-33 9-34 29c-2 27 12 45 38 50c11 2 22 3 33 4c0-23 2-45-11-64z m121-78c-2-1-4-1-5-2c-26-11-51-19-78-25c-26-5-51-7-77-5c-32 3-61 13-90 28c-18 9-35 18-53 28c-6 3-11 2-14-2c-3-4-2-10 3-13c18-14 35-29 54-42c35-24 73-38 123-38c40 1 85 14 126 38c7 4 14 9 21 14c6 4 7 9 4 14c-3 5-8 7-14 5z m38 39c-19 2-38 0-55-12c-4-3-6-7-4-12c2-4 6-5 11-4c8 1 17 2 26 3c3 0 6 0 9 0c4 0 6-2 5-6c-1-4-2-8-3-13c-2-8-6-15-8-23c0-3 0-7 2-9c2-1 6-2 9-1c2 0 4 2 6 4c13 14 20 30 22 49c2 18-1 22-20 24z"/>
<glyph unicode="&#41;" d="M481 395c-13-18-28-34-46-47c0-3 0-7 0-12c0-25-3-50-11-74c-7-25-18-49-33-71c-14-23-32-43-52-61c-21-17-45-31-74-41c-29-11-60-16-92-16c-52 0-99 14-142 42c7-1 14-2 22-2c43 0 81 14 115 40c-20 0-38 6-54 18c-16 12-27 27-33 46c7-1 13-2 18-2c8 0 16 1 24 4c-21 4-39 15-53 31c-14 17-21 37-21 59l0 1c13-7 27-11 42-11c-13 8-23 19-30 32c-8 14-11 29-11 44c0 17 4 33 12 47c23-28 51-51 84-68c33-17 69-27 107-29c-2 8-3 15-3 22c0 25 9 47 27 65c18 18 40 27 66 27c26 0 49-10 67-29c21 4 40 11 59 22c-7-22-21-39-41-51c18 2 35 7 53 14z"/>
<glyph unicode="&#42;" d="M334 76l-215 0l1 144l-32 0l-1-179l281 0l0 179l-34 0z m-194 59l169 0l0-36l-169 0z m4 65l169-17l-3-36l-169 16z m16 73l163-46l-10-36l-163 46z m39 82l145-87l-19-32l-145 88z m152-81l-99 138l30 22l99-138z m9 191l37 6l28-167l-37-6z"/>
<glyph unicode="&#43;" d="M287 145c0 0 0-33 0-33c24-3 43-9 59-17c16-8 24-18 24-28c0-13-11-23-34-33c-22-9-49-14-80-14c-31 0-57 5-80 14c-22 10-34 20-34 33c0 10 8 20 24 28c16 8 36 14 60 17c0 0 0 33 0 33c0 17-5 32-17 43c-11 12-30 27-57 45c-20 13-34 23-45 32c-11 8-23 21-38 37c-15 16-26 34-33 55c-7 21-10 44-10 70c0 5 1 9 5 12c4 4 8 5 13 5c0 0 88 0 88 0c16 32 58 48 124 48c67 0 109-16 125-48c0 0 87 0 87 0c5 0 9-1 13-5c4-3 5-7 5-12c0-26-3-49-10-70c-7-21-18-39-33-55c-15-16-27-29-38-37c-11-9-25-19-45-32c-26-17-45-32-56-44c-12-12-17-27-17-44m70 129c28 20 49 39 65 59c16 20 25 45 28 76c0 0-65 0-65 0c-2-54-11-99-28-135m-101 187c-21 0-40-3-55-8c-16-5-27-10-33-16c-6-6-9-11-9-15c0-5 3-10 9-16c6-6 17-11 33-16c15-5 34-8 55-8c21 0 40 3 55 8c16 5 27 10 33 16c6 6 9 11 9 16c0 4-3 9-9 15c-6 6-17 11-33 16c-15 5-34 8-55 8m-194-52c3-31 12-56 28-76c16-20 37-39 65-59c-17 36-26 81-28 135c0 0-65 0-65 0z"/>
<glyph unicode="&#44;" d="M130 434c0-13-5-25-15-35c-10-9-22-14-38-14c-15 0-28 5-37 14c-10 10-14 22-14 35c0 15 4 26 14 36c9 9 22 13 38 13c16 0 28-4 37-13c9-10 14-21 15-36m-101-404c0 0 0 316 0 316c0 0 98 0 98 0c0 0 0-316 0-316c0 0-98 0-98 0m156 215c0 29 0 63-2 101c0 0 85 0 85 0c0 0 5-44 5-44c0 0 2 0 2 0c21 34 53 51 98 51c34 0 61-11 82-34c21-23 31-57 31-102c0 0 0-187 0-187c0 0-98 0-98 0c0 0 0 175 0 175c0 46-17 68-50 68c-24 0-41-12-50-36c-2-5-3-13-3-25c0 0 0-182 0-182c0 0-100 0-100 0c0 0 0 215 0 215z"/>
<glyph unicode="&#45;" d="M431 389c0 0 4-2 4-2c13-7 23-18 31-32c7-13 10-29 10-49c0-44-19-80-56-107c-36-28-89-41-157-41c0 0-15 0-15 0c-6 0-11-2-17-6c-5-5-9-9-10-15c0 0-18-80-18-80c-4-14-13-21-27-21c0 0-54 0-54 0c-6 0-11 2-15 6c-3 5-4 10-3 15c0 0 3 13 3 13c0 0 35 0 35 0c6 0 11 2 17 6c5 5 8 10 10 15c0 0 18 80 18 80c4 14 13 20 27 20c0 0 15 0 15 0c67 0 119 14 157 41c37 28 56 64 56 108c0 19-4 35-11 49m-297-264c-1-6-4-10-9-15c-6-4-11-7-17-7c0 0-55 0-55 0c-6 0-11 3-14 7c-3 5-4 9-2 15c0 0 77 331 77 331c3 13 12 20 26 20c0 0 115 0 115 0c26 0 48-1 64-4c19-4 36-10 48-17c13-9 23-19 30-32c7-13 10-29 10-49c0-45-18-80-56-108c-36-27-88-41-156-41c0 0-16 0-16 0c-5 0-11-2-16-6c-6-4-9-9-10-14c0 0-19-80-19-80m45 191c-1-5 0-10 3-14c4-4 8-6 13-6c0 0 15 0 15 0c29 0 52 6 68 18c17 12 25 29 25 51c0 15-5 25-15 32c-11 7-27 11-49 11c0 0-17 0-17 0c-14 0-23-7-27-21c0 0-16-71-16-71z"/>
<glyph unicode="&#46;" d="M192 91c0 8-3 15-8 20c-5 5-12 8-19 8c-8 0-15-3-20-8c-5-5-8-12-8-20c0-7 3-14 8-19c5-5 12-8 20-8c7 0 14 3 19 8c5 5 8 12 8 19z m0 330c0 7-3 14-8 19c-5 5-12 8-19 8c-8 0-15-3-20-8c-5-5-8-12-8-19c0-8 3-15 8-20c5-5 12-8 20-8c7 0 14 3 19 8c5 5 8 12 8 20z m183-37c0 8-3 14-8 19c-5 6-12 8-20 8c-7 0-14-2-19-8c-5-5-8-11-8-19c0-8 3-14 8-19c5-6 12-8 19-8c8 0 15 2 20 8c5 5 8 11 8 19z m27 0c0-10-2-19-7-28c-5-8-12-15-20-19c-1-55-22-95-65-119c-13-7-32-15-58-23c-24-7-40-14-48-20c-8-6-12-16-12-29l0-7c8-5 15-12 20-20c5-8 7-18 7-28c0-15-5-28-16-38c-10-11-23-16-38-16c-16 0-29 5-39 16c-11 10-16 23-16 38c0 10 2 20 7 28c5 8 12 15 20 20l0 234c-8 5-15 12-20 20c-5 8-7 18-7 28c0 15 5 28 16 38c10 11 23 16 39 16c15 0 28-5 38-16c11-10 16-23 16-38c0-10-2-20-7-28c-5-8-12-15-20-20l0-142c10 5 25 11 44 16c10 4 19 6 25 9c6 2 13 5 20 9c7 3 13 7 17 11c4 4 8 9 12 15c3 5 6 12 8 19c1 8 2 17 2 27c-8 4-15 11-20 19c-5 9-7 18-7 28c0 15 5 28 16 39c10 11 23 16 38 16c16 0 29-5 39-16c11-11 16-24 16-39z"/>
<glyph unicode="&#47;" d="M407 329c3-35-9-59-38-74c22-5 39-15 50-29c11-14 15-35 13-61c-1-14-4-26-9-36c-5-10-11-19-19-25c-7-7-16-13-27-17c-11-4-23-8-35-10c-12-2-26-3-42-4l0-73l-44 0l0 72c-15 0-27 0-35 0l0-72l-44 0l0 73c-3 0-8 0-15 0c-7 0-12 0-16 0l-57 0l9 52l32 0c9 0 15 5 16 15l0 115l5 0c-1 0-3 0-5 0l0 82c-2 13-11 20-25 20l-32 0l0 46l61 0c12 0 21 0 27 0l0 72l44 0l0-70c16 0 28 0 35 0l0 70l44 0l0-72c15-1 29-3 40-6c12-3 23-7 33-13c9-5 17-13 23-22c6-9 9-20 11-33z m-62-156c0 7-1 13-4 19c-3 5-7 9-11 13c-4 3-9 6-16 9c-7 2-13 4-19 5c-6 1-13 2-21 2c-8 1-15 1-20 1c-4 0-11 0-18 0c-8 0-12 0-14 0l0-97c2 0 5 0 11 0c5 0 10 0 14 0c3 0 8 0 15 0c6 1 12 1 16 1c5 1 11 2 17 3c6 1 11 2 16 4c4 1 8 3 13 6c5 2 9 5 11 8c3 4 6 7 7 12c2 4 3 9 3 14z m-20 136c0 7-1 12-4 17c-2 5-5 9-8 12c-4 3-8 6-14 8c-6 2-11 4-16 5c-5 1-10 2-17 2c-7 1-13 1-17 1c-4 0-9 0-15 0c-7-1-10-1-12-1l0-87c1 0 5 0 10 0c6-1 10-1 13 0c4 0 8 0 15 0c6 0 11 1 15 2c5 0 10 2 15 3c6 1 10 3 14 5c4 2 7 5 11 8c3 3 6 6 7 11c2 4 3 9 3 14z"/>
<glyph unicode="&#58;" d="M226 395c-2-1-4-2-4-3c-1-2-2-3-3-3c-1 0-1 0-1 1c0 3 2 4 5 5z m25-4c-1-1-2 0-3 1c-2 2-4 2-5 2c4 2 7 2 9-1c0-1 0-2-1-2z m-100-122c-1 0-2-1-2-1c-1-1-1-2-1-4c-1-1-1-3-2-4c-1-1-2-2-3-3c-1-2-1-3 0-4c1 0 2 1 3 2c2 2 3 3 4 5c0 1 0 2 1 2c0 1 0 2 0 2c0 0 0 1 1 1c0 1 0 1 0 1l0 1c0 0 0 1-1 1c0 0 0 1 0 1z m244-103c0 3-5 7-16 12c1 3 2 5 2 8c1 2 1 5 2 7c0 3 0 5 1 6c0 2 0 4 0 7c0 3-1 4-1 5c0 1 0 3-1 7c0 3-1 5-1 6c0 0 0 3-1 7c-1 4-2 6-2 7c-2 9-6 19-13 30c-7 10-14 17-21 21c5-4 10-12 17-24c16-30 21-57 15-79c-2-8-7-12-14-12c-6-1-10 1-11 5c-2 5-2 13-3 24c0 12-1 22-3 31c-2 7-3 14-5 19c-2 6-4 10-6 13c-2 3-3 6-4 7c-2 2-3 4-4 5c-1 1-2 2-2 2c-3 12-6 21-9 29c-3 8-6 13-9 16c-2 3-4 6-6 10c-2 3-4 7-5 11c0 4 0 9 2 15c2 6 2 11 1 14c-1 4-5 6-12 8c-3 0-7 2-13 5c-6 3-9 4-10 4c-2 0-3 3-3 8c-1 4 0 9 2 14c2 5 6 8 10 8c7 1 12-2 15-9c3-6 3-11 1-16c-2-4-2-6-1-8c2-1 5-1 9 0c2 1 4 4 4 10l0 11c-1 6-3 10-4 14c-2 4-4 7-6 9c-3 2-5 3-7 4c-2 1-5 2-8 2c-20-1-28-14-25-38c0-3 0-4 0-4c-2 2-5 3-9 3c-4 0-7 0-9 0c-3-1-4 0-5 1c1 11-1 20-4 26c-3 6-8 9-13 10c-5 0-9-3-12-8c-3-6-4-11-5-17c0-3 1-7 1-11c1-4 3-8 4-11c2-3 3-4 5-3c1 0 3 1 4 4c1 1 0 2-2 2c-1 0-3 1-4 4c-2 3-3 6-3 10c0 4 1 7 3 10c1 3 5 4 9 4c4 0 6-2 8-6c2-4 3-8 3-11c0-3-1-6-1-6c-4-3-7-6-9-9c-1-2-4-4-7-6c-4-2-6-4-6-4c-3-3-4-5-5-8c0-2 1-4 2-5c3-1 5-3 8-5c2-2 3-4 4-6c1-1 3-2 5-3c3-1 6-2 11-2c9-1 18 1 29 4c0 0 2 1 6 2c4 1 8 2 10 3c3 1 6 2 9 4c3 1 5 3 6 5c1 2 3 3 5 2c1-1 2-1 2-2c0-1 0-3-1-4c-1-1-2-2-4-3c-4-1-10-3-17-6c-7-3-11-5-13-5c-8-4-15-6-20-7c-4-1-12-1-22 1c-2 0-3 0-3-1c0-1 2-2 5-5c5-5 11-7 19-7c4 1 7 1 11 2c3 2 7 3 10 4c3 2 6 4 9 5c4 2 6 4 9 5c3 2 5 3 7 4c2 1 4 1 5 0c1 0 2-1 2-3c0 0 0-1 0-1c0 0 0-1-1-1c-1-1-1-1-2-2c0 0-1-1-2-1c-1-1-2-1-3-1c0-1-1-1-3-2c-1-1-2-1-2-1c-6-3-12-7-20-13c-7-5-13-10-19-12c-5-2-9-3-14 0c-4 2-10 9-18 21c-4 5-6 8-7 6c0-1 0-2 0-3c0-5-1-10-4-16c-3-6-6-11-9-16c-2-5-4-10-6-17c-1-6 0-12 4-18c-5-1-11-9-18-25c-8-16-12-30-14-41c0-3 0-10 0-19c0-10-1-16-2-17c-1-5-4-5-8-1c-6 6-10 15-10 27c-1 5 0 11 1 16c0 3 0 5-1 5l-1-1c-7-13-6-29 3-48c1-2 3-5 7-8c4-3 6-5 7-6c4-4 14-13 30-25c16-13 25-21 26-22c3-3 5-7 5-11c1-5-1-9-4-12c-3-4-7-6-13-7c2-3 5-7 9-13c4-5 6-10 8-15c1-5 2-12 2-20c8 4 9 13 2 26c-1 2-2 3-3 5c-2 1-2 2-3 3c-1 1-1 1-1 2c1 1 2 2 4 2c2 1 4 1 6 0c9-10 24-14 47-11c26 3 42 12 51 25c4 8 7 10 10 9c2-1 3-6 2-15c0-5-2-14-6-26c-2-5-2-8-2-11c1-3 3-4 7-4c1 3 2 11 4 22c2 11 4 19 4 25c0 4 0 11-2 21c-1 10-2 20-2 28c0 8 2 15 7 20c2 4 7 5 14 5c0 7 4 12 10 15c6 3 13 4 21 3c7-1 13-3 17-6z m-180 236c1 4 1 6 0 9c-1 2-2 4-4 4c-1 1-2 0-2-2c0-1 1-1 1-2c2 0 3-1 2-4c0-4 0-6 3-6c0 0 0 1 0 1z m120-56c0 2-1 3-2 3c-1 1-2 1-3 2c-2 0-3 1-5 1c-1 1-1 2-2 3c-1 1-2 1-2 2c-1 0-1 1-2 2c0 0-1 1-1 1c0 0-1 0-1-1c-3-3-2-7 2-12c4-5 8-8 11-9c2 0 3 1 4 2c1 2 2 4 1 6z m-51 61c0 2 0 4-1 5c-1 2-2 3-3 4c-1 1-2 1-3 1c-3 0-3-1-2-2l1-1c3 0 5-3 5-9c0 0 1 0 3 1z m16 66c0 1-1 1-1 2c0 0-1 1-3 2c-1 1-2 1-2 2c-3 2-5 4-7 4c-2 0-3-1-3-2c-1-2-1-3-1-4c1-1 1-2 0-4c0 0-1-1-2-3c-1-1-1-2-1-2c0-1 0-1 1-3c0 0 1 0 2 0c1 1 2 2 3 3c1 1 3 2 4 3c0 0 1 0 3 0c1 0 3 0 4 0c1 1 2 1 3 2z m161-383c4-2 7-4 9-7c2-2 3-4 3-7c1-2 0-4 0-6c0-2-2-4-5-6c-2-2-4-4-6-6c-3-1-5-3-9-5c-4-2-7-4-9-5c-2-1-6-3-9-4c-4-2-6-3-8-4c-7-4-15-9-24-16c-9-7-17-13-22-18c-3-3-10-5-19-6c-10-1-18 1-26 4c-3 2-6 4-8 7c-2 3-4 5-5 7c-1 2-3 4-6 6c-3 1-8 2-14 3c-8 0-20 0-37 0c-3 0-9 0-16-1c-7 0-13 0-17 0c-8 0-16-2-22-5c-7-2-12-5-16-8c-3-3-7-6-12-8c-5-3-10-4-15-4c-6 1-16 4-32 9c-16 6-30 10-42 13c-3 0-8 1-14 2c-6 1-11 2-15 3c-3 1-7 1-11 3c-4 1-7 2-9 4c-3 1-4 3-5 5c-2 5-2 11 2 19c3 9 5 14 5 16c0 3 0 7-1 11c-1 5-2 9-3 12c-1 4-2 7-1 11c0 3 1 6 3 8c2 2 8 3 16 4c8 0 14 1 17 3c6 3 10 7 12 10c2 3 3 8 3 15c4-14 1-24-9-31c-6-4-14-5-23-4c-7 1-11 0-13-3c-2-3-2-8 2-16c0-1 1-3 2-5c1-3 2-4 2-5c1-2 1-3 2-5c0-2 0-4 0-7c0-2-2-7-5-14c-3-6-4-11-4-13c1-4 4-6 11-8c4-1 12-3 24-5c12-2 22-4 28-6c5-1 12-3 21-6c10-3 18-5 24-7c6-1 11-1 16-1c8 1 14 4 18 8c4 4 7 9 7 14c0 5-1 10-2 17c-2 6-4 11-6 14c-2 4-4 8-5 11c-23 36-40 59-49 69c-13 14-23 18-32 11c-2-1-4 0-4 5c-1 3-1 6-1 11c0 5 1 10 3 14c2 5 4 9 7 14c3 4 5 8 6 12c2 4 4 11 8 20c3 10 6 18 8 23c2 5 5 11 9 17c3 7 7 12 11 16c21 27 33 45 35 55c-2 22-4 51-4 89c-1 17 2 31 7 43c5 12 15 22 30 30c7 4 17 6 30 6c10 0 20-1 30-4c10-3 18-7 25-12c11-8 20-19 26-34c7-16 10-30 9-43c-1-18 2-38 8-61c7-21 20-42 38-62c11-11 20-27 29-47c8-19 14-38 17-54c1-9 2-18 1-24c0-7-1-12-3-16c-2-4-4-6-6-6c-2-1-4-3-7-6c-2-3-5-6-7-10c-3-4-7-7-12-10c-5-2-11-4-17-4c-4 1-7 1-9 2c-3 1-5 2-7 4c-1 2-3 3-4 4c0 1-2 3-3 6c-1 3-2 5-2 6c-5 7-9 9-12 8c-4-1-6-6-8-14c-2-8-1-17 2-28c4-13 4-31 0-55c-2-13 0-22 5-29c6-7 13-10 21-9c9 0 17 3 24 10c12 9 20 15 26 19c6 3 16 7 30 12c10 3 17 7 22 10c4 4 6 7 5 10c-1 3-4 6-7 8c-4 3-9 5-15 7c-6 2-11 7-14 14c-3 7-5 14-4 20c0 7 1 12 4 14c0-6 1-11 2-16c2-5 3-9 4-12c2-3 4-5 6-8c3-2 5-4 6-5c2-1 4-3 6-4c3-1 5-2 5-3z"/>
<glyph unicode="&#59;" d="M465 221c2 10 3 22 3 33c0 118-96 214-214 214c-11 0-22-1-33-3c-20 12-43 19-68 19c-71 0-129-57-129-129c0-25 7-48 19-68c-2-11-2-22-2-33c0-118 95-214 213-214c12 0 23 1 34 3c19-12 43-19 68-19c71 0 129 57 129 129c0 25-7 48-20 68z m-109-64c-9-13-23-23-40-31c-17-7-38-11-62-11c-28 0-52 5-70 15c-13 7-24 17-32 29c-9 12-13 24-13 36c0 6 3 12 8 17c5 5 12 7 19 7c7 0 12-2 16-5c5-4 9-10 12-17c3-8 7-15 11-21c4-5 10-10 18-14c7-3 17-5 30-5c17 0 31 4 41 11c11 7 16 16 16 27c0 9-3 15-8 21c-6 5-13 9-23 12c-9 3-21 6-36 9c-21 5-38 10-52 16c-14 6-26 15-34 25c-8 11-12 24-12 39c0 15 4 28 13 40c9 11 21 20 38 26c16 7 35 10 58 10c17 0 33-2 46-6c13-5 23-10 32-17c9-7 15-14 19-21c4-8 6-15 6-22c0-7-3-13-8-18c-5-6-11-8-19-8c-7 0-12 1-16 5c-3 3-7 8-11 15c-5 10-11 18-19 23c-7 6-18 8-34 8c-15 0-27-3-36-9c-9-6-13-13-13-21c0-5 1-9 4-13c3-4 7-7 13-10c5-3 11-5 16-6c6-2 15-4 28-7c16-4 31-8 44-12c13-4 24-9 34-15c9-7 16-14 22-24c5-9 7-21 7-34c0-17-4-31-13-44z"/>
<glyph unicode="&#60;" d="M372 208c0 10-2 19-6 26c-4 8-8 15-14 20c-5 5-12 10-21 14c-8 4-16 7-23 10c-7 2-16 4-25 6l-30 7c-6 1-10 2-12 3c-3 1-6 2-10 3c-4 2-7 3-9 5c-2 2-3 4-5 6c-1 2-2 5-2 9c0 14 14 22 41 22c8 0 16-2 22-4c7-2 12-5 16-8c4-3 7-6 11-10c3-3 7-6 11-8c4-2 9-3 14-3c9 0 16 3 21 9c6 6 8 13 8 22c0 10-5 20-16 28c-10 9-24 15-40 20c-17 4-34 6-52 6c-13 0-26-1-38-4c-12-3-23-8-34-14c-11-6-19-14-25-25c-7-10-10-22-10-36c0-12 2-22 5-31c4-8 9-16 16-21c7-6 15-11 23-14c8-4 18-7 30-9l41-11c18-4 28-7 32-10c7-4 10-10 10-17c0-8-4-14-12-19c-7-4-17-7-30-7c-10 0-18 2-26 5c-8 3-14 6-19 11c-4 4-9 8-13 13c-4 4-8 8-13 11c-4 3-10 4-15 4c-10 0-17-3-22-8c-5-6-7-13-7-22c0-17 12-32 35-45c23-12 51-19 83-19c14 0 27 2 40 6c13 3 24 8 35 15c11 7 19 16 25 27c7 11 10 23 10 37z m103-62c0-30-10-56-32-77c-21-22-47-32-77-32c-25 0-47 7-67 22c-15-3-29-4-43-4c-27 0-53 5-78 16c-25 10-46 25-64 43c-18 18-33 39-43 64c-11 25-16 51-16 78c0 14 1 28 4 43c-15 20-22 42-22 67c0 30 10 56 32 77c21 22 47 32 77 32c25 0 47-7 67-22c15 3 29 4 43 4c27 0 53-5 78-16c25-10 46-25 64-43c18-18 33-39 43-64c11-25 16-51 16-78c0-14-1-28-4-43c15-20 22-42 22-67z"/>
<glyph unicode="&#61;" d="M280 480c0 0-101 0-134 0c-60 0-117-46-117-98c0-54 41-98 102-98c4 0 8 1 12 1c-4-8-6-16-6-25c0-15 8-27 18-37c-8 0-15 0-23 0c-75 0-132-48-132-97c0-48 63-79 137-79c85 0 132 49 132 97c0 39-12 62-47 87c-12 9-35 29-35 42c0 14 4 21 25 38c23 17 38 42 38 70c0 34-15 66-43 77l43 0z m-47-328c1-4 1-9 1-14c0-39-25-69-97-69c-52 0-89 32-89 71c0 39 46 71 98 70c12 0 23-2 33-5c28-20 48-31 54-53z m-83 146c-34 1-67 39-73 84c-6 45 17 80 52 79c34-1 67-37 73-83c6-45-17-81-52-80z m266 86l0 96l-32 0l0-96l-96 0l0-32l96 0l0-96l32 0l0 96l96 0l0 32z"/>
<glyph unicode="&#62;" d="M512 312l-1 1l-2 0l0 1l-5 0l-1 1l-3 2l-2 0l-1 1l0 2l-1 2l0 1l-3 1l-1 4l-1 3l1 2l-3 1l-1 1l0 1l-3 2l-1 1l-1 0l0 1l-2 3l0 1l-1 0l-2 2l-1 2l1 1l0 1l3 0l0 6l2 1l2 2l0 1l1 0l0 1l1 2l0 1l1 1l3-1l2 0l1 1l0 1l-1 1l0 6l-3 2l-1 1l0 3l-1 1l-2-1l-2 0l-2-2l-2-1l-1-1l-2 1l-1 2l-1 1l-2 0l-1 1l-1 0l0 1l-2 2l-1 0l-5 5l-463 0c0-88 1-176 1-264l510 0c0 62 0 124 1 186l-1 0l1 1z"/>
<glyph unicode="&#63;" d="M418 109z m4 17z m-1 0l-1 0l0-1l1 0z m1-16l1 0z m-4 0l0-1z m0-1z m4 16l1 0l0 1l-1 0z m2-13l0-1l1 0z m-6-3z m21-3z m-16 4z m2 2l0-1z m-1 13z m-11 10l-1 0l1-1z m-3-26z m0 0z m-1 0z m1 0z m-2 33l-1 0l1-1z m-4 17z m10-25l0-1l1-1l0 1l-1 0z m4-25z m-8 0z m8 0z m-3 23l-1 0l0-1l1 0l1 1z m7-6z m-9 8l0-1z m24-7z m-4-9z m-8-6l0-1l1 0z m9 4z m-1 0z m0 2z m0 0z m0 0z m2 1z m2 5z m1-19z m-34 54z m33-37l-1-1l0-2l-1 0l0-2l0 1l1 1l0 2l1 0z m-3-3z m-1-1z m1 1z m-7-7z m3 1z m-4-2l0 1z m7 4z m-2-1l-1-1l1 0z m-4-2z m-1 0l0 1l-1 0l1-1l0-1l1 1z m6 5z m1 2l-1-1l1 0z m-2-2z m2 0z m-1-1z m0-1z m-8 10l-1 1l0-1z m-105 26z m0 0z m-58-10l0-1l1 0l0 1z m16 11l-1-1l-1 0l0-1l-1 0l0-1l1 1l1 0z m44-1z m-12 6l-3 0l0-1l1 0l1-1l0 1l1 0z m9-6l-1 0z m0 0z m6 1z m2 5z m2-3z m0 1z m-4-3z m-1-1l0 1l-1 0z m0 3l-1 0l1-1z m-295 70l-1 0l-1 1l-1 0l0-1z m-1-9l0-1l1 0l0 1z m-4 10l-1 0l0-1l2 0z m237-85l0-1l-1 0l-2-2l-1 0l0-1l1 0l0 1l1 1l1 0l1 1z m-230 84z m-27 50z m18-48l-1 0l0-1l1 0z m233-93l-1-1l-1-2l-1 0l0-2l-1-1l0-1l1 0l0 3l1 2z m-3-14l0-2l1 0l0-2l1-3l0 2l-1 1l0 1l-1 4l0 2l-1 3l0-4l1-1z m5 17l0 1l-1-1l0-1l-1-1l1 0l0 1z m-217 79l-1 0l-1 1l0-2l1 0l1-1z m-2-7l0 1l-1 0l0-1z m-5 9z m314-49z m58-10z m0 1z m0 0z m-4 3z m-17 5z m21-9z m1-1z m-1 1l0-1l1 0l0 1z m1 0z m0-1z m-1 1z m1-2z m-27 9l-1 0l1-1z m-41-5l1 0z m1 3z m0 0z m0-3z m1 4l-1 1l0-1z m-1 3z m44 0l-1-1l1 0z m-54-12z m14 12z m62-10z m-44 15l-1-1l-3 0l-1-1l6 2l1 0c-1 0-1 0-2 0z m-20-5l0 1l-1-1l2 0z m-2-4z m0 0z m64-1z m-372 236z m1 0z m0-2l0 2l-1 0l0-1z m0-4z m2 7l0 1l-1 0z m-1-1z m1-2l-1 0l-1-2l1-1l0-2l1 0l0-1l1 0l0 1l-1 1l-1-1l0 4l1 0z m-1 3l0-1l1 0l0 1z m-4 1z m2 3z m-1-3z m3-16l0 1l-1 0l0-1z m-3 15l-1 0l0-1l1 0l0-1l1 0l-1 1l1 0z m1 1z m-20-126z m325-110l0 1l-2 0l0-1z m-3 1z m0-5z m1 1z m1 2z m105-57z m-406 293z m-2 1z m-1-1l1-1l0 1l1 0l-1 1z m3-2l0 1z m-16-20z m-8-102l0-1z m22 112l0-1l1 0l0 2l-1 0z m313-42z m4 9l0-2l1 1l0 1z m-11-5l-1 0l0-1l1 0z m8-3z m-316 36z m307-35l-1 0l0-1l-1 0l0-2l-1 0l0-2l2 0l0 3l1 0z m13 8z m-15-192z m98 188l1 0l0 1l-1 0z m-70 8l4 0l0 1l-1 0l-1 1l-1-1l0-1z m71-7l1 0l0 1l-1 0z m0-4l0 1l-1 0l0-1z m-58-32z m35 16l1 0l0 1z m-64 18z m-43 12l-1 0l0-1l1 0z m-3 1l0 1z m2 0z m2 0z m-276 21l-1 0l0-1l1 0z m277-19l-1 0l0-1l1 0z m15 3l0-1l1 0l0 1l1 0l0-1l-1 0l0-1l1-1l0 2l1 0l0 1l1 0l0 1l1 0l0 2l2 0l-1 1l-2-1l-2 0l0-1l-1 0l-1-1z m39-6l0-1l1 1z m-45 13l0-1l1 0l1 1l0 1l2 1l1 0l0 1l1 1l-1 0l-1-1l-1 0l0-1l-1 0z m44-17z m0 6l0-1l1 0l0 2l-1 0z m-21-2l0-1l1 0l0 1z m20-6l0-1l1 0l0 1z m-23-192l0-1z m147 162z m1 4z m-10-12l-1 0l-1-1l1 0l0 1z m7 6l-1 0l0-1l-2 0l0-1l-1 0l-1-1l0-1l-1 0l0 1l1 0l0 2l1 0l0 1l-1-1l0-1l-1 0l0-1l-2 0l-1-1l-2 0l0-1l-2 0l0-1l-2 0l0-1l-1 0l0-1l-2 0l0-3l1 1l0 1l1 0l0-1l-1 0l0-1l1 1l2 1l-1-1l0 1l2 0l0 1l2 0l0 1l2 0l0 1l1 0l0 1l3 0l0 1l1 0l1 1l0 1l1 0z m4 6l-1 0l0-1z m-15-14l-1 0z m9 10z m14 5l-1 0l1-1z m-1 0l-2 0l0-1l-1 0l0-1l1 0l0 1l2 0z m7 35l-2 0l0-1l2 0z m-2-35l-1 1l0-1l-1-1l2 0z m2 36l1 0l0 1l-1 0l0-1l1 0z m-3-33z m6 37l-1 0l0-3l1 0l0 1l1 1z m-37-68l-1 0l0-1l1 0l0 2z m-21-72z m-1-4z m4 9l0-1l-1-1l-1 0l0-1l1 2l1 0l1 1z m16 64l0-1l1 1z m-22-194z m1 0z m11 133l1 0z m2 0z m6 16l-1 1l0-1z m2-3l0 1c0 0 0 0 0 1l-1 0l1-1l0-5l-1-1l1 0l0 1l1 0l0 1l-1 2z m-3-6l-1 0l0-1l1 1l1 0l0 1z m-1-1z m-2-2l0-1l-1-1l-1-2l0-1l1 1l0 2l2 2z m-26-124z m-95 43l0-1z m71-7z m23-35z m2-1z m-2 1z m0 0z m2-1z m-94 48z m68-8z m-68-1z m0 0l1 1z m1 4z m0 5z m120 118l0-3c0-1 0-1 0-1l-1-1l0-1l1 1c0 0 0 1 0 1z m-3-11z m-47-130z m46 127l1 0z m-25-151z m81 258l0 1l-1 0l0 2l-1 0l0 1l-1 0l0-1l-1 0l-1 1l0 1l-1 1c0 1 0 1 0 1l0 1l-4 0l0 3c-1 4-3 8-4 12l-1 0l0 1l-2 0l0 1l-3 0l0-1l-1 0l0-1l-1 0l-1-1l-2 0l0 2l-2 0c-2-4-3-7-4-10l0-1c0-1 0-1 0-2l0-1l-1 0l0-3l1 0l-1-1l0-1l1 0l0-1l-1-1l0-2l-1 0l0-3l-1 0l0-3l-1 1l-1 0l0-1l-2 0l0-2l-1-1l0-1c-4-1-9-2-13-3c0 0 0 0-1 0c0 0-1-1-1-1c-4-1-8-2-12-2l0-1l-2 0l-2-2c-1-1-2-3-3-4l-1-1l0-2l-1 0l-2-2l-1-2l2 0l0-2l-1 0l0-1l1 0l0-2l1 0l0-1l-1 0l0-1l-1 1l0-1l-1-1l-1 0l0-1l-1 0l0-1l-1 0l-4-1l-1-1l-1 0l-1 1l-3 0l-2-1l-1 0l-3-1l-1 0l-1-1l-1 0l1-1l0-1l1 0l0-2l1 0l0-2l-1 0l0-2l-1 0l0-1l-1 0l0-1l-1 0l0-1l-1 0l0-1l-1 0l0-1l-1 0c0 0 0 0-1-1l-1-1l-1 0l0-1l-2-1c-1-1-2-1-3-2l-1 0l0-1l-1 0l-3-2l-2-3l-4 0l-2-2l-5 0l0-1l-1 1l2 0l0 1l-5 0l0 1l-2 0l0 1l1 1l0 1l1 0l0 4l1 0l0 1l1 0l0 4l2 0l0-1l1 0l0 6l-1 0l0 2l-1 2l0 1l-1 3l-1 1l0 1l-1 0l0 1l-2 0l0-1l-2 0l0-1l-1 0l0-3l-1 0l-1-1l-2 0l-1 1l0 2l1 1l1 0l0 1l1 0l0 3l2 0l0 1l-1 3l0 3l-1 0l0 1l-1 0l0 1l2 0l0 1l-1 0l0 1l-1 1l-2 0l0 1l-4 0l0 1l-1 0l-1 1l-6 0l0-1l-1-1l0-1l1-1l1 0l-1-1l-1 0l-1-1l-1 0l0-1l1-1l0-1l-1-1l0-2l-1 0l0 1l1 0l0 2l-1-1l0-2l-1 1l1 0l0 1l-1 0l1 1l0 2l-1 0l0-2l-1 0l0-1l-1 0l-1-1l0-2l-1 0l-1-1l1-1l0-3l-1-1l0-1l-1-1l0-1l1 0l0-4l-1 0l0-1l1 0l0-1l2-3l1 1l0-1l-1 0l1-1l0-2l1-3l0-3l-1-1l0-1l-2-4l0-1l-1-1c-1-1-2-1-2-2l-2-1l-2 0l0 1c-1 0-1 1-1 1l-1 0l0 3l-1 0l0 1l-1 0l0 5l-1 0l0 1l1 0l0 1l-1 1l0 2l-1 0l0 7l1 1l0 5l1 0l0 6l1 0l0 2l-1 1l-1 0l-1-1l0-1l-1-1l-1 0l0-1l-1 0l0 2l1 0l0 2l1 1l1 0l0 3l2 2l0 2l1 1l0 1l1 0l0 3l1 0l0-1l-1 0l0-1l1 0l0-1l1 0l0 2l2 0l0-1l-1 0l0-1l1 0l0 1l1 0l0 1l1 0l0 1l1 1l3 0l1 1l1 0l1 1l1 0l0 1l1-1l3 0l0-1l1 0l0-1l1 0l0 3l1 0l0-1l5 0l0 3l-2 0l0 2l-1 0l0 1l-2 0l0-1l-1 0l0 1l-1 0l0-1l-3 0l0 3l1 1l-1 0l0-1l-2 0l-2-1l-4 0l-1-1l-2-1l-1-1l-1 0l0-1l-3 0l0 1l-1 0l0-1l-3 0l0 1l-1 0l0 1l-1 1l-1 0l0 1l-4 0l-1-1l-1 0l0-1l-1 1l0 1l1 0l-1 1l0 1l-1 0l0 1l-1 0l-1-1l0-1l-1 0l0-1l-2 0l0-1l-1 0l-1-1l-3-1l-2-1l-1-1l-1 0l-1-1l-1 0l-1 1l-1 0l0-1l-2 0l1 1l0 2l1 0l0 1l-3 0l0-1l-2 0l0-1l-1 0l-1-1l-2 0l-1-1l-1 1l-1 0l0 1l2 0l0 1l1 0l0 1l1 0l0 1l1 0l0 1l4 4l1 0l1 2l2 1l1 0l1 1l2 0l2 2l1 0l0 1l-3 0l0 1l-1 0l-3-1l-3 0l0 2l-1 0l-2-2l-1 0l0-1l-2 0l0 1l-2 0l0 1l-2 0l0 1l-3 0l0-1l-1 0l0 2l-2 0l0 1l-2 0l0 1l-1 0c0 0-1 0-2 0l-1 0l0-1l-1 0l-1-1l-1 0l0 1l-1 0l0 1c-1 0-2 0-3 0l-3 0l-1 1l0 1c-1 1-1 2-1 3l0 2l-3 0c0-1 0-2 0-4c-77-3-155 3-230 19l0-1l-1 0l0-1l1 0l0-1l1 0l0-2l-1 0l1-1l0-1l-1 0l0 1l-1 0l0-1l1 0l0-1l1 0l0-1l-1 0l0-1l1-1l-1 0l0 1l1 0l0-1l1-1l0-1l-1 0l-1-1l0-3l-1 0l1-1l-1 0l1-1l-1 0l0-1l-2 0l0-1l-4 0l1 1l0-1l-1 0l0 1l1 0l0 1l1 0l0 1l1 0l0-1l-1 0l0-2l1 1l0 1l1-1l0 1l1 0l0 2l-1 0l0 1l1 0l0 1l1 0l0 1l-1 0l0 1l-1-1l0-1l-2 0l0-1l-1 0l0-1l-1 0l0-1l0 1l1 0l0 1l1 1l1 0l0 2l1 0l0-1l-1 0l0-1l1 0l0 1l1 1l0 2l-1 0l0 1l-1 0l0-1l-1 1l0 1l-3 0l-1 1l-2 0l-1 1l-1 0l0 1l-2 0l0 1l-1 0l-1 1l-1 0l0-6l1 0l0-7l1 0l0-1l-1-1l0-2l1 0l0 1l1 0l0-1l-2 0l0-2l1 0l1-1l1 0l0-1l-1 0l0 1l-1 0l0-3l-1 0l0 2l1 1l-1 0l0-4l1-1l3 0l1-1l0-1l-1 1l-4 0l0-2l-1 0l0-4l-1-1l1 0l0-1l-1 1l0-2c0-1 0-1 0-1c-1 0-1-1-1-1l0-2l-1 0l0-3l-1 0l0-1l1 0l0-1l-1 1l0-2l-1-1l0-2l-1-1l0-2c-1-1-1-1-1-2l1 0l0-1l-2 0l0-1l-1-2l-1 0l0-1l-1-2l0-1c-1 0-1-1-2-2l0-1l1 0l0-2c0 0 0 0 0-1l-1 0l0-5l1 0l0-3l-1 0l0-1l1 0l0-1c0 0 0 0 0-1l0-3l-1 0l0-2l-1 0l0-1l1 0l0-1l-1 0l0-2l-1 0l-1-1l0-1l-1 0l0-3l-1-1l1 0l1-1l0-2l1 0l0-1l1-2l0-4l-1 0l0-8l1 0l0-1l1 0l1-3l1-1l0-1l1 0l-1-1l1 0l0-1l1-1l-1 0l-1-1l0-1l2 0l0-1l1 0l0-1l1 0l0-1l1 0l0 3l1 0l0 1l1-1l1 0l0-1l1 0l0 1l1 0l0-1l2 0l0-1l1 0l0 1l1 0l0-1l1 0l0-1l-1 0l0 2l-1 0l0-1l-2 0l-1 1l-4 0l0-3l1 0l0-3l1 0l0-1l-1 0l0 1l-1 0l0 1l-1 0l0 3l-1 0l0-8l1-1l0-1l1 0l0-1l2 0l0-1l1-1l0-1l-1 0l0-1l-1 0l-1-1l1 0l0-4l2-2l0-1l1 0l0-3l1 0l0-2l1 0l0-1l1-1l0-1l1 0l0-3l1 0l1-1l0-2l-1 0l0-5l1 0l0-1l1 0l2-1l2 0l1-1l3 0l0-1l1 0l1-1l0-1l1-1l0-1l1 0l1-1l3 0l1-1l1 0l0-4l1 0l0 1l1 0l0-1l1 0l1-1l0-1l1 0l1-1l0-1l1 0l0-1l1-1l1-2l1-1l0-3l-1 0l0-2l2 0l0-1l-1 1l0-2l4 0c6 0 13-1 19-1l1 0c0 0 0 0 1 0l-1-1l0-1l-1 0c11-6 22-12 33-17c2-1 3-1 4-2l1 0c2 0 4 0 7-1c2 0 3 0 5 0l3 0l0-1l2 0c0 0 1 0 2 0l1 0c1 0 2 0 2 0l2 0c1 0 2 0 2 0l1 0c0 0 1-1 1-1l0 5c0 0 0 1 0 1l6 0l0-1l1 0c1 0 1 0 1 0l10 0l0-1l1 0l1-1l0-2l1 0l0-1l2 0l0-1l1 0l0-1l1 0l0-1l1 0l0-1l1 0l0-1l2-2l1 0l0-1l1 0l1-1l1 0l0-1l1-1l0-2l1 0l0-2l1 0l0-1l-1-1l0-1l1 0l0-2l1 0l0-2l1 0l0-1l2 0l0-1l2-2l1 0l1-1l1 0l0-1l2 0l0-1l1 0l1-1l3 0l0 1l1 0l0 1l1 0l0 2l1 1l0 2l1 1l0 1l3 0l0 1l2 0l1-1l8 0l0-2l2 0l0-2l1 0l2-2l1 0l0-2l1 0l0-1l1-1l0-2l1 0l0-1l1-1l0-1l1-1l0-2l2-2l1 0l0-2l1 0l0-1l1 0l0-2l1 0l0-1l2 0l0-1l1 0l-1-1l1 0l0-5l1 0l0-2l1 0l0-1l1 0l0-3l1 0l0-2l4 0l0-1l1 0l0-1l1 1l0-1l2 0l0-1l1 0l1-1l6 0l0-1l1 0l1-1l1 0l0 1l2 0c0 1 0 1 0 1l-1 0l0 1l-1 1l0 2l-1 0l0 4l-1 0l0 5l1 0l0 2l-3 0l0 2l1-1l1 0l0-1l2 2l0 3l1 0l-1 1l-1 0l0 1l2 0l2 2l0 1l-1 0l0-1l-1 0l0 2l2 0l0-1l1 1l1 0l0 4l1-1l0-1l2 0l0 1l1 0l0 1l-1 0l0 1l-1 0l0 2l1-1l0-1l1 1l0-1l1 1l-1 0l0 1l1 0l0-1l2 0l-1-1l1 0l1 1l1 0l0-1l-2 0l2 0l1 1l2 1l-1 0l-2-1l1 1l3 0l3 3l1 0l0 3l1 0l1 1l1 0l0 2l-1 0l0 1l-1 0l1 1l-1 0l0 1l2 0l0 1l2 0l0-1l-1-1l0-1l1 0l1 1l1 0l0-1l-2 0l0-1l4 2l1 0l1 1l2 0l0 2l-1 0l1 2l1 0l0-2l-1 0l0-1l2 0l0 1l6 0l1-1l2 0l2-1l6 0l0 1l-1 1l1 0l0 1l1 0l1 1l1-1l-1 0l0-1l1 0l0 1l2 0l0-1l1 0l0-2l1 1l0-1l2 0l-1 1l1 0l0-2l1 0l0-1l1-1l-1 0l0 1l-2 0l1-1l3 0l1-1l1 0l-1 1l1 0l0-1l1 0l0 1l1-1l0 2l1 0l0 1l1 0l0-1l1 1l0-1l1 0l0-2l2 2l-1 0l1 1l0 1l-1 1l0 1l1-1l2 0l0-1l1 0l-1-1l4 0l0-1l2 0l0-1l-1 0l0-2l1 1l0 1l2 0l1 1l-1 1l-1 0l0 1l-3 0l0 1l-1-1l0 1l-1 0l0 1l-1 0l0 2l1 0l0 1l2 0l0 2l-1 0l0 1l-1 0l0-2l-2 0l0 1l-1 0l0 1l2 0l0 1l-1 0l-1-1l0 1l-1 0l0-1l-1 0l-1-1l-1 0l0 1l-2 0l0 1l1 1l0 1l1 1l1 0l0-1l1 0l0-1l4 0l0-1l1 1l1 0l0 1l1 0l0 1l3 0l0 1l7 0l0 1l1 0l0-1l1 0l1 1l-1 0l0 1l1 1l0 1l1 0l0-3l2 0l0-2l1 1l1 0l0 1l1 0l0 1l1 0l-1 1l1 0l0-2l-1 0l0-1l2 1l0 1l1 0l0 2l1 0l0 1l1-1l0-2l-2 0l0-1l1 1l3 0l0 1l3 0l0 1l4 0l0-1l-2 0l1-1l3 0l1-1l1 0l0 1l1 0l0 1l1 0l-2-2l3 0l0-1l-1 0l0 1l-1 0l1-1l0-1l2 0l0-1l1 0l0-2l1 0l1 1l2 0l0 1l1 0l0-1l2 2l1 0l0 1l1 0l0 1l1 0l0 1l3 0l0 1l1-1l2 0l0-1l1 0l1-1l0-1l2 0l0-2l1 0l1-1l1 0l0-1l1 0l0-1l1 0l0-1l3 0l0-1l1 0l-1-1l2 0l0-1l-1 0l0-1l1 0l0-7l-1 0l1-1l0-2l-1-1l2-2l0 1l0-1l1 0l0 3l-1 0l0 1l1 0l0-1l2 0l0-2l-1 0l0-2l-1-1l-1 0l1-1l1 0l0-2l1 0l0-1l1 0l1-2l1-1l1 0l1-1l0 1l-1 0l0 1l1 0l0 1l1 0l0-1l-1 0l1-1l0-4l2 2l0 1l0-2l-1 0l0-1l2 0l0-3l1-1l0-1l1 0l0-1l4 0l0-2l1 0l0-1l1 0l0-1l1 0l0-1l1-1l2 0l0-1l-2 0l0 1l-1 0l0-2l3 0l0 1l1 0l0-1l1 1l1 0l1 1l1 0l0 1l1 0l0 5l1 0l0 9l-1 1l1 1l-1 1l0 3l-1 0l0 1l-2 2l1 0l-3 3l0 2l-5 7l-1 1l0 2l-1 0l0 1l-1 1l2 0l0-1l-1 0l1-1l2 0l0-5l1-1l0-1l1 0l-1 1l0 1l-1 1l0 4l-3 3l-1 2l-1 0l0 1l-1 1l-1 2l-2 2l0 2l-1 0l0 2l-1 1l0 1l-1 1l0 2l-1 0l0 4l-1 0l0 1l-1 0l0 1c0 0 0 0 1 0l-1 0l1 1l0 1l-1 1l0 1l2 0l0 1l-2 0l0 1l1 0l0 1l1-1l0 3l1 0l0 1l-1 0l0 1l1 0l0 2l1-1l0 2l1 0l0 1l-1 0l1 1l1 0l0 2l-1 0l0 1l-1 0l0 1l2-2l1 0l1 1l-1 0l0 2l2 0l1 1l-1 1l1 0l0-1l1 1l1 0l0 1l1 0l0 1l-1 0l0 1l1 0l0-1l1 0l0 2l1 0l0 2l2 0l0 1l1 0l0 1l1 0l0 1l-1 0l-1 1l1 0l0-1l1 0l0 2c0 1 1 2 1 3l3 3l0 1l2 0l0 1l4 0l0 3l-1 1l1 0l0-3l1 0l0 5l1 0l1 2l1 0l0 1l-1 1l1 0l-1 1l1 0l0-2l1 0l0 1l1 1l0 1l1 0l0-1l1 1l3 0l-1 1l2 0l0 1l1 0l0 1l1 0l-1 1l1 0l0 1l-1 0l0-1l-1-1l0 1l-1 0l1-1l-1 0l0 1l-1 0l0-1l-3 0l0 1l-1 0l0 1l1-1l1 0l0-1l1 0l1 1l0 1l1 0l0 3l-4 0l0 1l2 0l2 2l0-1l-1 0l0-1l1 0l0 1l1 0l0-1l3 0l0 2l1 0l0 1l1 1l0 3l-1 1l0-1l-2 0l1-2l0-1l-1 0l0 4l-1 0l-1-1l-1 0l1-1l-2 0l0 1l-1 0l0-1l-2 0l0 1l-1 1l0 1l1 1l0-1l-1 0l0-1l1 0l0-1l3 0l0 2l3 0l0 1l-1 0l0 1l1 0l0-1l1 0l0 1l-1 0l0 1l1 0l0-1l1-1l0-1l1 0l0 1l-1 0l0 1l-1 0l0 2l-2 0l0 2l1-1l0 1l1 0l0-2l1 0l0-1l1-1l0-2l1 0l1-1l0-1l1 0l-3 3l0 1l-1 1l0 1l-1 2l-2 2l0 2l-1 0l0-1l-1 0l-1 1l0-1l-1 0l0-1l-1 0l0 1l-1 0l0 1l-1 0l0 1l-3 0l-1 1l1 0l0 1l1-1l2 0l0-1l1 0l1-1l0-1l1 0l0 1l1 0l0 1l-1 0l0 1l-2 0l0 1l-2 0l0 1l-1 0l0 1l2-2l1 0l1 1l-1 0l0 1l1 0l0-1l1 0l0 2l-1 0l0 1l-3 0l0 1l-1 0l-2 2l-1 0l0 1l-1 0l0 1l1 0l0-1l1 0l0-1l1 0l0-1l2 0l0-1l1 0l0-1l2 0l0 1l-1 1l1 0l-1 1l1 0l0 1l-3 0l0 1l-1 0l0 1l-1 0l0-1l-1 0l0 1l-2 0l-1 1l1 0l0 1l-1 0l-1-1l-2 0l0 2l1 0l-1 1l2 0l0 2l1 0l-1-1l0-1l-1-1l0-2l1 0l0 1l2 0l0-1l1 0l0 1l1-1l0-1l1 1l1 0l0-1l2 0l1-1l0 1l-1 0l0 2l-2 0l0 1l-1 0l-1 1l0 2l1-2l0-1l1 0l1-1l0 2l-1 0l0 2l-1 0l0 4l1 0l-1 1l0 1l-2 0l0 1l1 0l0-1l1 1l0 2l1-1l0 1l1 0l0 2l2 0l0-1l-1 0l0-1l1 1l1 0l0-1l-3 0l0-2l-1-1l2 0l0-2l-1 0l-1 1l0-3l1 1l0 1l1 0l0-2l-1 0l0-1l2 0l0-1l1 0l0 1l1 0l0-1l-2 0l0-1l-1 0l0-2c1 0 1 0 1 0l1 0l0-1l1 0l0 1l1-1l0-1l2 0l-1-1l0-1l1 0l1 1c0-1 0-1 0-1l0-2l-1 0l1-1l-1 0l0-4l-1-1l1 0l0-2l1 0l0 5l1 0l1 1l0 6l1 0l0 3l1 0l0 3l1-1l0 1l-1 0l0 1l-1 0l1 1l-2 2l-1 0l0 1l-1 1l0 1l-1 0l0 2l-1 0l-1 1l0 2l-1 0l1 1l0 1c1 1 1 1 1 1l1 0l0 1l1 0l-1 0l0-1l-1 0l0-1l-1 0l0-4l1 0l1-1l2 0l0-1l3 0l0-3l1 1l0 1l1 0l0 2l1 1l-1 0l1 1l1 0l0 2l-1 1l1 0l0-1l1 0l0 1l-1 0l1 1l0 5l1 0l0-1l-1 0l1-2l0 3l-1 1l1 1l-1 0l0 1l1 0l-1 2l0-1l-1 0l0 1l-1 0l0-1l-1 0l0 3l1 0l0 1l1 0l0 3c0 0 0 0 0 1l0 1l-1 0l0 1l1 0l0-5l1 1l0 1l1 0l0 1l1 0l0 1l1 0l0 1l2 0l0 1l1 0l0 1l1 0l0 1l2 0l1 1l3 0l0 1l1 0l0 1l1-1l0 1l1 0c1 0 1 0 1 0l2 1l1 0l0 2l-1 1l0 1l1 0l-1 1l1 0l0-1l1 0l0 2l1 0l0-1l-1-1l0-1l3 0l0 1l1 0l-1 1l1 0l0 1l1 0l0-2l1 0l0 1l1 0l0 1l2 0l0 1l2 0l0 2l-1 2l-1 0l0-1l1 0l0-2l-1 0l-1-1l-2 0l0 1l-1 1l-1 0l0 2l-1 0l0 1l-2 0l0-1l-1 0l0 1l-1 0l0 1l1 0l1 1l0 1l1 1l0 1l-1 0l-1 1l0 4l1 0l0 3l1 0l0 3l1 0l0 1l-1 0l0 1l1 1l0 1l2 0l-1-1l2 0l0 2l-1 0l0 1l-1 0l1 1l0-2l1 0l0 2l1 0l-1-1l2 0l-1-1l1 0l0 2l1 1l0-1l1 0l0 1l1 0l0 6l1 0l0-2l1 0l0 1l1-1l1 0l0 2l1 0l0 1l1 0l-1 1l1 0l0-1l2 0l0 1l1-1l0 2l1 0l0 1l1 0l0 1l2 0l0 1l1 0l1 1z m-50-65l0-1l1 1l1 0l0 1l-1 0l-1-1l1 0z m-10-34l1 0l0 1l-1 0l0-1l1 0z m-22-124z m-1 4l-1 0l0-1l1-1l0-2l1 0l-1 1z m-13 27z m36 96l0-1z m-15-138l-3 4l0 1l-1 1c0 0 0-1 1-1l0-1l1-1l0-1z m-4 71l-1 0l0-1l1 0z"/>
<glyph unicode="&#64;" d="M374 101l-1-1l0-1l-2-1l-3-6l-1 0l0-1l-1 0l0-2l-2-2l0-1l-1-1l0-3l-1-2l-1-5l0-1l1 1l0 1l1 4l3 6l3 7l5 7l1 1z m8 12l-1 1l0-1l-1 0l0-1l-3-4l1 0l0-1l-1-2l-2-2l0-1l1 1l1 2l2 2l3 4z m-19-62l0-3l1-1l1-2l0-1l1-2l0-1l1-3l0-1l1-2l1-9l0-1l1 1l-1 3l0 4l-1 1l0 4l-1 1l0 1l-4 14l-1 7l-1 11l0-15l1-2l0-3z m98 117l0-1l-1 1l0-1l1 0l0-1l-1 0l0-1l-1 0l0-1l-2-1l-1 0l0-1l-1-1l-3-2l-2-2l0-1l1 1l5 4l2 1l6 5z m51 76l-1 0l-1 2l1 1l0 3l-2 0l-1 1l0 3l-1 0l-1 1l0 2l1 1l-1 0l0 1l-1 0l0 3l-2 0l0 2c1 0 1 0 1 0l0 1l-2 0l0 1l-2 1l0 8l-2 4l0 1l-2 2l0 1l-2 0l0 1l-1 1l0 1l-1 0l0 1l-1 0c1 24 1 48 0 71l0 1l-1 0l-1 1l0-1l-1 0l-1 1l-2 0l-1-1l-2 1l-1 0l0-1l-3 0l0 1l-2 0l0 1l-1 1l0 1c0 0-1 0-1 0l-2 0l-1 1l-3 0l0 1l-3 0l-1 1l0 1l-2 0l-3 1l-2 2l0 1l-1 0l0 1l-1 0l0 1l-3 0l-1 2l-2 0l0 1l-1 1l-4 0l0-2l-1 0l0-1l-2 0l0-1l-5 0l0 1l-3 0l0 2l-1 0l-1 1l-1 0l0-1l-1 0l-1-1l-1 0l-1-1l-2 0l0-2l-1 1l-1 0l0-1l-1 0l-3 2l-1 0l0-1l-1 0l-1-1l-4 0l-1-1l-1 0l-1-2l-1-1l-3 0l0-1l-2-2l-1 1l-1 2l-1 1l-3 0l-1 1l0 1l-1 0l-1 1l-1 0l0 3l-3 0l0-2l-1 0l0-1l-2 0l-1 1l-3 0l-1 1l0 2l-1 1l-3 0l0-2l-1-2l-1-1l-2 1l0-1l1 0l0-1l-1-1l0-3l-1-1l-1 0l-3 3l0 2l1 1l0 3l-2 0l0-1l-1-1l0-1l-2 2l0-1l-2-2l-3 0l0 1l-1 1l0 1l-1 1l-3-1l-1 1l0 3l-2 1l-1-1l-2-1l-4-4l-4 0l-1 1l0 5l-2 0l-2 1l-1 0l0 6l-2 0l-2-1l-1 0l-5 1l-1 0l-1-1l0-1l-1-1l-3 0l-3 3l0 1l-3 0l-3-1l-5 1l-1 0l-3 2l-8 0l0 1l-1 0l0 4l-2 2l0 1l-2 2l-2 0l0 1l-1 1l-1-1l0-3l-3 0l-1 1l-2 1l0-1l-1 0l0-1l-3 0l-1 1l-1 0l0 1l-7 7l-2 0l0 1l-2-1l-1 0c0 31 0 61 0 92c-39 0-79 0-118 0l0-1c0-70-1-140-1-210c-47 0-93 0-140 0l0-1l1-2l0-2l1-2l0-1l2 0l0-1l3-2l2 0l1-1l2-1l1-2l1-1l1-3l0-1l2-2l0-2l1 0l2-2l2 0l1-1l2 0l2-2l1 0l0-1l6-6l0-1l1-1l3-1l0-1l1 0l1-1l0-1l2 0l0-1l1-2l0-1l1 0l1-2l4-2l1-2l1 0l1-1l2-1l1-1l1 1l1-1l1 0l0-1l1 0l0-1l1 0l1-2l2 0l2-2l0-2l2 0l2-2l0-3l1 0l0-4l1-1l1 0l0-2l2-2l0-2l1 0l2-2l0-5l-1-1l0-2l1-3l0-2l1 0l0-1l1-1l0-2l1 0l0-1l1 0l0-1l1-2l0-1l1-1l0-2l1 0l2-2l0-1l1 0l3-2l0-1l3 0l1-1l1 0l0-1l1-1l1-2l1 0l2-1l1-2l2-1l6-2l3 0l1-1l-1-1l1 0l2-2l1 0l4-1l1 0l1-1l0-1l2-2l2 0l0-1l2-1l1 0l0 1l1-1l1 0l-1-1l3 0l2-1l2 0l1 1l0 1l1 1l0 2l1 0l1 1l1 0l1 3c0 0 1 0 1 0l1 0l2 2l1 0l0 1l-1 0l0 4l1 1l1 0l0 5l2 3l0 2l1 0l0 2l1 1l1 2l0 1l1 0l0 1l2 0l2 1l2 0l0 1l5-1l0 1l1 1l0 2l1 0l0 1l1 0l0 1l1-1l1 0l1-1l2 0l2-2l8 0l0-1l1 0l0 1l4 0l0-1l1 0l6-1l2 1l1 0l0 1l1 0l0-1l-1-1l2 0l0 1l1 0l1-1l2 0l0-1l1-1l0-2l1 0l0-1l2 0l0-1l-1-1l0-1l1 0l0 1l1 0l1 1l1-1l0-4l1 0l1-1l1 0l3-1l1-1l0-2l1 0l0-1l1-1l3-1l1-1l0-1l1 0l2-1l0-1l1 0l1-2l-1-1l1 0l2-2l0-1l1 0l1-1l0-2l1-2l0-4l1 0l0-1l1 0l0-2l1 0l1-1l0-1l1-4l1-1l1-2l0-1l1 0l1-1l0-3l1 0l2-1l-1 0l0-2l1-2l0-1l1-2l1-1l-1-1l1-1l0-1l2 0l0-1l1 0l0-1l1-1l3-1l2-2l0-2l1 0l0-2l1-1l0-1l2 0l0-2l1 0l0-1l1 0l0-3l1 0l0-2l1-1l1 0l0-1l1 0l0-1l2 0l0-2l1-1l2 0l0-1l2 0l1-1l1 0l2-2l0-3l1-1l0-4l-1-1l0-1l-1-1l1-1l1 0l0-1l2-2l0-1l-1-1l0-4l-1-1l1-1l0-1l2 0l0-3l1 0l3-3l0-1l1-1l1 0l0-2l1-2l1-5c0-1 1-2 1-3l0-1l1 0l2-2l0-1l-1-1l0-1l1-1l5 0l1-1l0 1l2-1l3 0l2-2l1 0l0-1l1 0l0-2l1 0l1-1l3 1l1 0l1-1l1 0l1-1c0 0 0 0 1 1l2-2l1 0l0-1l1 0l0-1l1-1l1 0l3-2l5 0l0-1l2 0l1 1l3-1l2 1l3 0l1-1l4-1l1 0l2-2l0-1l1 0l2-2l1 0l0-1l2 0l0-1l1 0l1-1l2 0l0 2l-1 1l1 0l0 1l1-1l1 1c0 0 1 0 1 0l0 1l5 0l0 1c0 1 0 2 0 3l-1 1l-1 0l0-3l-2 0l0-1l-1 0l0 2l1 1l0 1l1 0l0 1l-3 0l0 1l-1 0l0 5l-1 0l1 1l0 1l-2 0l0 2l1 0l0 1l-1 0l0 1l-2 0l0 2l-1 0l0 3l-1 0l1 1l1 0l0-1l0 2l-2 6l-1 2l0 4l-2 0l-1 1l0 1l1 1l0 1l2-2l0 1l-2 1l0 1l-1 1l0 2l1 0l2 1l1 0l0 1l-1 1l0 2l2 0l0 1l-1 1l0 1l1 0l0 2l1 1l0 1l-1 0l-2-1l-1 0l-1-1l-1 0l-1 1l-1 0l-1 1l-4 0l-1 1l4 0l0 1l-1 0l0 2l-2 1l1 0l0 1l-2 1l0 1l1 0l1-1l3-5l1 0l0-1l1 0l0 1l1 1l1 0l0 1l1 0l1 1l0-2l1 0l-1-1l0-1l-2 0l1-1l1 1l3 1l0 2l2 4l1 1l0 3l2 2l0 2l1 1l0 2l-4 1l0 1l-1 1l0 3l-1-1l-1 1l-1-1l-2 2l11 0l1-1l0-1l1 1l3 4l2 3l0-1l1 2l0 3l-1 0l-2-1l0-1l-1-1l0-1l-1 0l1 1l-1 1l-1 0l-1 1l1 1l1 2l-1 0l1 1l1 0l0-1l1 1l1 0l2 1l0 1l1 0l0-3l1-1l0 1l1 1l0 2l1 2l1 0l-1-1l0-1l1-1l-1 0l0-1l-1-2l1 1l2 0l1 2l2 2l1 0l-1 2l0 1l1 1l-1 1l-1 2l-1 1l1 1l0-1l1 0l1-1l0 2l-1 1l0 1l1 0l0-2l1 0l0-1l1 0l1-1l0-3l2 0l4 2l1 0l1 1l1 0l3 2l-2 2l-3 0l0-1l-1 0l0 1l2 1l0 1l-1 0l0 1l-1 0l-1 1l-1 0l0 2l-2 2l0 2l1 0l0 1l1 0l0-1l1 0l0-2l1-1l2 0l0-1l2 1l0-2l-1 0l-1-1l1 0l4 2l-2 1l0 2l1 1l-2 0l0 2l1-1l1 0l0-2l2-2l1 0l1 2l1 0l0-1l1 1l2 0l-1-2l0-1l1 0l1 1l1 0l0-1l-3 0l0-1l2 0l2 1l1 0l1 1l1 0l1 1l1-1l0-1l-1-1l-6-3l-1-1l2 1l3 1l2 2l4 1l3 1l4 3l-3 0l-5-4l-1 0l0 3l5 2l5 0l2 1l2 0l4 3l3 2l1 0l0 1l1 0l5 5l3 2l0 7l1 0l0-1l2 0l1 1l2 3l1 0l1 1l0 1l1-1l1 1l0 2l1 1l1-1l1 0l-2 1l-2 2l-1 0l0 2l1 0l0 1l-3 1l-1 1l1 1l0 1l1 0l0 1l-2 1l0 1l1 1l-1 0l0 1l-1 0l0 1l2 0l1-1l2-1l1-1l1 1l1 2l0 1l1 1l1 0l1 1l1 0l0-1l1 0l0-2l1 0l-1-1l0-2l-1-2l0-2l-2 0l0-2l1 0l2 1l6 1l1 0l0-1l1 0l1 1l0-1l-1-1l-3 0l-1-1l0-1l-2 0l-4-4l-1 0l0-1l2 0l2 3l14 7l5 1l3 2l1 1l9 0l1 1l-3 3l-1 2l0 2l3 4l1 1l0 1l2 0l1 1l2 3l0 2l1 1l-1 1l0 6l-1 0l0 5l2 2l0 1l-1 1l0 4l1 0l0 1l1 2l0 1l2 1l0 3l2 2l0 5l1 0l0 1l-1 1l0 2l2 1z m-113-119l-1 0l0-2l-3 0l0-1l-1-1l-2 0l0-1l-1 0l-3-3l-2 0l-1-1l-1 0l0-3l-1-1l1 0l4 4l4 2l2 2l1 0l1 1l3 1l0 1l1 0l0 2z m4 3l-2-2l1 0l1 1l1 0l0 1l1 0l1 1l-1 0z"/>
<glyph unicode="&#91;" d="M141 5c-35 0-64 12-87 37c-25 24-38 52-38 85c-1 33 13 65 43 97c0 0 254 254 254 254c27 28 57 37 89 28c15-4 28-12 40-24c12-12 20-26 24-41c9-32 0-62-27-90c0 0-243-242-243-242c-14-14-29-22-45-24c-17-1-30 3-41 14c-10 9-15 21-14 38c1 17 9 33 24 47c0 0 170 171 170 171c8 9 17 9 26 0c9-9 9-17 0-25c0 0-170-170-170-170c-15-15-19-27-11-36c5-3 9-4 13-3c8 1 16 6 23 13c0 0 243 243 243 243c17 17 23 35 17 55c-5 21-18 34-39 39c-18 5-36-1-55-18c0 0-253-253-253-253c-22-26-33-51-33-74c1-22 10-42 27-59c17-17 37-25 60-26c23-1 47 10 72 32c0 0 254 253 254 253c8 8 17 8 26 0c9-8 9-16 0-25c0 0-254-254-254-254c-28-28-60-42-95-42z"/>
<glyph unicode="&#93;" d="M247 37l-1 1l-1 0l0 1l-1-1l-1 0l0-1l1-1l2-1l3 0z m-24 38l-1 1l0 1l-4 0l0-1l-5 0l3-3l0-2l1 0l1-1l1 0l1 1l2 0l2 1l0 1l1 1l0 1z m-13 3c0 0-1 0-1 0l0 1l-1 0l0-1l-2 0l-1-1l6 0z m34-2l0 1l-1 1l-2 0l-2-2l-4 2l-3 0l-3 1l-1 1l0-1l-1 0l0-1l1 0l1-1l0-2l1-1l2 0l1-1l10 2z m49-59l-6 6l0 1l-2 2l0-3l1-1l1-2l2-2l0-2l1-1l1 0l1-1l1 0l0 1l3 0l-2 1z m184 75l-3 3l-3 2l-2 2l-2 0l0 2l-1 0c1 1 1 1 1 2l-1 0l0 2l-1 0l0 3l-1 1l-3 6l-2 0l0 3l-1 1l0 1l-2 0l0 1c0 2 0 4 0 7c-77 72-152 145-232 215c0 56 0 112 0 169l-182 0l1-1l0-7l-1-1l-1-2l-1-1l0-1l2 0l2-2l1-2l1-1l0-1c0-1 0-2 1-3l0-3l1-1l1 0l-1-2l0-1l1-4l0-2l-1-3l0-3l-1-4l-2-4l0-4l2-4l0-1l-3-8l-2-3l0-1l1 1l2 3l3 0l-1-1l0-1l-2 0l-1-1l-1-2l-1-1l0-3l-1 0l-1 1l1 1l0 1l-2-2l0-1l-1-2l0-2l-1-2l-1-1c0-1 0-2-1-3l0-3l-1-1l1-1l0-1l1-3l1-2l-1-2l0-1l1-1l1 0l5-6l3-1l1-1l1-2l0-1l1-1l0-1l1 0l2-1l6-10l0-3l1-1l0-1l1 0l0-1l1-1l0-5l1-3l0-1l-1 0l0-1l-1-3l0-4l-1-2l1-2l0-1l1-1l0-1l1-3l0-1l1 0l1-4l0-3l1-1l0-2l-1-1l0-1l-1-1l0-1l7-7l0-1l1-1l1 0l1-2l2-1l7-10l1-1l6-3l1-1l1-3l1-1l0-3l3-1l1-1l0-2l1-2l3-3l1-2l1-1l0-1l-3 3l0 2l-3 3l-1 0l2-3l0-1l-2-6l-1-2l0-1l2 0l0 1l1 1l0 3l1 0l1-2l1-1l2-1c1 0 1-1 1-1l1 0l0-2l1 0l1-1l1-2l1 0l1 1l-1 1l3-2l1-2l2-1l1-1l2 0l1 1l-1 0l0 3l1-1l0-1l1 1l-3 3l1 1l0 2l1 0l-2 2l0 5l3 0l2 2l4-2l1-1l0-1l1 0l4-2l1 0l0 1l1 0l1 1l0 1l1 0l0 2l1 0l1 1l1 0l0-3l2-1l2 0l-1-1l3 0l0 1l5 0l2 4l0-3l-1 0l-1-1l-1 0l-1-1l0-1l4 0l0 2l1 1l4 0l3-3l1 0l2-2l0-1l-1 1l-1 0l-1 1l0 1l-2 0l-1 2l-1 0l0 1l-1 0l-1-1l-1 0l0-2l-2 0l0-1l2 0l-1-1l-1 0l-2 1l-5 1l-2 0l-6 1l-1 0l-2-2l-1 0l-2 2l-2 0l-3-3l-2 0l0-1l-1-1l0-1l-1 0l1-2l2 0l1-1l1-3l-1-2l0-1l1-1l1 0l2-1l1 0l-2-1l1 0l0-1l1 0l1-1l1-2l2-6l0-1l1-1l1 0l0-1l1 0l0-1l1-1l-3 0l-1 1l0 1l-2 0l0 1l-2 0l0 2l-2 0l0 1l-2 0l-1 1l0 1l-2 0l0 1l-1 1l1 4l0 2l-1 2l0 1l-4 0l-1-1l0-7l1-2l-1-1l0-1l-1-2l1-2l1 0l2-2l0-3l1-1l0-1l1-1l0-4l-1-2l0-2l1-2l1-1l1 0l0-1l6-6l1-2l3-2l6 0l1 1l2 0l2-2l2-5l1-2l0-3l1 0l0-1l-2 0l0-3l-1-1l0-1l-2-2l0 1l-1 1l-1 0l0-1l-1 0l-1-2l1-1l1 0l0-1l1 0l-2-2l2-3l0-5l1-2l0-1l1-1l1 0l0-2l1-1l1 0l4-3l2-1l3-6l0-1l2 0l2-2l0-1l1-1l0-3l2-2l1-2l1 0l2-1l0-4l2-3l1 0l3-1l4-4l2-4l2-1l1-1l3 0l2-2l0-2l1-1l0-2l-1 0l0 2l-1-4l0-3l1-1l3-1l1-1l1 1l2 0l0-1l1-1l1 0l1-2l0-4l-1-2l-1-3l0-2l1-1l1 0l0-5l-1-1l1-1l0-1l1-1l0-1l-1-1l0-2l-1-1l0-2l1 0c0-1 1-1 2-1l1 0l2-1l2-4l2 0l4 1l8 0l2-1l2 1l3-1l4-2l4 0l1-1l3 0l0 1l5 0l1-1l3-1l2-1l5-4l1-1l2 0l0-3l1-1l0-1l4-4l2 0l-1 1l1 0l3-2l5-2l2 0l2-1l1 0l1 1l8 0l1 1l5-5c1-2 1-3 2-5l0-4l-1 0l0-1l1-1l0-1l2 0l0 1l1-1l0-1l3 0l0 3l6 0l0-1l6-6l2-1l5-2l4-4c1-1 2-1 2-2l1-1l3-2l4-3l6-8l2-5l1-3l0-1l1-1l1-5l0-1l-2-2l0-1l2-1l0-2l-1-2l0-1l1-1l0 2l3 0l1-1l1 0l0-1l1-1l0-2l-2 2l0 1l-2 2l-1-1l1 0l2-2l1-2l0-4c35 3 69 6 103 9l1 0l0 1l1 1l5-1l2 0l0 4l2 2l1 0l0 2l-1 3l0 1l1 0l-1 1l-1 2l-1 1l-4 0l-2 1l-1 1l0 2l1 2l0 2l-1 3l0 1l-1 2l0 2l1 1l-1 0l0 1l-1 1l3 0l1 1l1 0l1 3l1 2l2 2l0 6l2 2l-1 1l0 7l1 1l-2 2l1 1l0 1l2 1l1 1l0 1l1 1l0 2l1 1l0 1l2 0l4 3l6 6z m-182-47l-4 1l-1 0l-3 2l-2 0l0-1l1-1l3 0l1-1l0-4l1-1l2 0l1 1l0-1l2-1l1 0l0 1l1 0l-3 4z"/>
<glyph unicode="&#94;" d="M478 205c9-20 14-40 14-61c0-36-13-68-39-94c-25-27-56-40-92-40c-21 0-41 6-61 17c-18-3-31-4-41-4c-62 0-115 22-159 67c-44 45-66 100-66 164c0 15 2 30 5 46c-12 21-19 43-19 69c0 37 13 68 38 94c26 26 56 39 93 39c25 0 48-7 69-21c11 3 24 4 39 4c62 0 115-22 159-67c43-45 65-100 65-164c0-16-1-32-5-49m-104-62c10 16 15 33 15 52c0 15-3 28-8 41c-6 10-14 19-26 27c-12 8-25 14-39 19c-23 6-39 11-49 13c-5 1-10 2-18 3c-7 2-11 3-13 4c-9 3-14 5-18 7c-5 3-10 7-13 12c-4 3-5 7-5 13c0 8 4 15 14 21c9 7 22 11 39 11c17 0 30-4 38-10c9-7 15-16 19-25c6-9 10-15 14-19c5-4 12-6 19-6c9 0 17 4 24 10c6 7 9 14 9 23c0 7-3 16-7 27c-6 8-13 16-22 24c-9 8-22 14-38 20c-16 4-34 7-52 7c-25 0-46-4-66-11c-19-7-33-18-44-31c-10-14-15-30-15-47c0-18 5-33 14-46c12-14 25-24 39-29c17-8 37-14 60-19c4 0 9-1 15-3c5-2 11-3 15-4c4-1 8-2 11-3c9-3 17-8 23-14c6-5 9-12 9-22c0-11-5-21-16-28c-12-8-28-13-46-13c-14 0-25 3-33 7c-9 4-15 9-18 14c-8 15-13 23-14 23c-2 9-6 16-12 21c-7 5-13 7-20 7c-10 0-18-3-24-9c-6-6-9-13-9-22c0-13 5-27 14-42c9-13 21-24 37-33c22-12 49-18 81-18c27 0 50 4 71 13c20 9 35 21 45 35z"/>
<glyph unicode="&#95;" d="M26 486l0-460l460 0l0 460z m250-265l0-113l-40 0l0 113l-101 199l47 0l74-150l76 150l45 0z"/>
<glyph unicode="&#96;" d="M444 402c0-1 1-13 2-37c2-23 4-48 5-74c1-25 1-54 0-87c-2-33-5-62-10-88c-5-25-14-47-26-64c-13-18-28-26-47-26c-52 0-86 4-99 13c-9 7-12 29-9 66c0 14 7 24 19 31c11 6 23 9 35 9c0 0 17-1 17-1c0 0-2-35-2-35c-4-1-10-1-19-1c-7 0-11-5-13-14c-1-13 6-20 21-21c0 0 44 2 44 2c13 1 18 24 14 69c0 6-3 10-9 14c-5 3-11 5-17 6c-6 1-15 3-25 4c-11 2-19 4-24 5c-10 3-18 8-24 14c-6 7-11 14-14 19c-3 6-5 9-5 9c-1 0-3-10-5-30c-2-19-7-29-15-29c-15 0-39 2-71 7c-33 5-52 11-59 18c-12 12-22 37-32 77c-9 39-14 65-14 77c0 11 10 17 30 15c0 0 59 0 59 0c27 0 40 12 40 37c0 4 0 13-1 27c0 13 0 24 0 30c0 28 7 42 20 42c31 0 52-2 62-7c6-2 11-7 15-13c3-6 6-12 6-17c0 0 2-8 2-8c0 0 104-6 104-6c3 0 8 0 13-1c5-1 11-5 20-10c8-6 12-13 12-22m-49-154c2 2 1 7-1 16c-3 9-8 18-15 27c-7 9-16 13-25 13c-10 0-17-4-23-12c-6-7-10-15-11-23c-1-8-1-13 0-15c3-2 5-3 8-3c2 1 7 2 13 3c6 1 12 2 16 2c5 0 10-1 16-3c6-2 10-4 14-5c4-2 6-2 8 0m-247 158c0-8-5-12-14-12c0 0-74 0-74 0c0 0 90 88 90 88c-1-47-2-72-2-76z"/>
<glyph unicode="&#123;" d="M298 358c-11-1-24-2-37-4c-19-2-39-6-55-14c-32-12-54-40-54-80c0-51 33-77 74-77c14 0 25 2 35 5c17 5 30 14 47 31c9-13 12-19 28-32c4-2 8-2 12 1c10 8 28 24 38 32c4 4 3 9 0 13c-9 12-18 22-18 46l0 77c0 33 2 63-22 85c-20 18-50 25-74 25c-4 0-7 0-11 0c-43-3-90-22-100-76c-2-7 3-9 7-10l48-6c5 1 8 5 8 9c5 19 20 29 37 31c1 0 2 0 4 0c10 0 21-5 27-13c7-11 6-24 6-36z m0-50c0-20 1-35-9-53c-6-12-17-19-28-22c-1 0-4-1-7-1c-18 0-30 15-30 36c0 28 17 41 37 47c11 2 24 3 37 3z m158-241c21 17 30 50 30 66l0 3c0 4-1 7-1 8c-5 5-35 10-62 2c-7-2-14-6-20-10c-5-3-4-7 1-7c5 1 12 2 19 3c16 1 35 1 40-5c7-8-7-42-13-57c-2-5 2-7 6-3z m-428 66c60-54 139-87 228-87c55 0 118 15 167 45c7 4 13 8 19 13c9 6 1 15-7 11c-4-1-8-3-12-4c-54-22-110-31-162-31c-83 0-163 23-228 60c-6 4-10-2-5-7z"/>
<glyph unicode="&#124;" d="M296 197c-7-7-1-20-1-20l54-90c0 0 9-12 17-12c7 0 15 6 15 6l43 61c0 0 4 8 4 15c0 9-14 12-14 12l-101 32c0 0-10 3-17-4z m-5 46c5-9 20-6 20-6l100 29c0 0 14 6 16 13c2 7-2 16-2 16l-48 57c0 0-5 7-13 8c-10 1-16-11-16-11l-57-89c0 0-5-9 0-17z m-48 35c12 3 14 20 14 20l-1 143c0 0-1 18-9 23c-13 7-17 4-20 3l-84-31c0 0-8-3-12-10c-6-9 6-24 6-24l87-118c0 0 9-9 19-6z m-20-58c0 11-14 17-14 17l-89 46c0 0-14 5-20 1c-5-3-10-8-10-12l-6-73c0 0-1-12 2-18c5-8 20-2 20-2l105 23c4 3 11 3 12 18z m26-39c-9 4-20-5-20-5l-70-78c0 0-9-12-7-19c2-7 6-10 11-12l70-23c0 0 9-1 15 0c10 3 8 17 8 17l2 105c0 0-1 10-9 15z"/>
<glyph unicode="&#125;" d="M142 465c23 19 68 24 86 20c19-3 28-13 29-26l1-160c0-12-7-24-15-25c-8-2-20 5-26 16l-84 137c-7 11-20 16 9 38z m-28-303l85 29c11 5 22 16 23 26c1 10-7 22-19 27l-89 35c-12 5-25-6-29-24c0 0-2-62 0-75c3-12 17-23 29-18z m147-15c1 12-6 23-14 24c-9 1-22-7-30-16l-59-71c-8-9-4-32 7-36l62-22c12-4 32 9 33 21z m147 16l-74 21c-12 4-26 3-30 0c-5-4-4-17 2-27l47-86c6-11 30-9 37 2c0 0 28 41 33 57c5 15-3 30-15 33z m18 120c-4 11-27 43-39 53c-13 11-27 10-35 0l-48-56c-8-10-10-25-4-34c5-9 19-14 32-11l82 15c15 4 15 22 12 33z"/>
<glyph unicode="&#126;" d="M355 239c1-3 2-6 2-9c0-7-2-13-6-18c-4-5-9-9-15-10c-3-1-6-2-8-2c-7 0-14 3-19 7c-5 4-9 10-10 17c-1 2-1 4-1 5c0 6 2 12 5 17c4 5 9 9 14 11c3 1 7 1 10 1c6 0 12-2 17-5c5-3 9-8 11-14z m-18-74c-3 1-5 2-8 2c-3 0-5-1-7-2c-21-12-45-19-68-19c-18 0-36 4-52 12c-3 1-5 3-8 5c-2 1-3 2-5 3c-2 0-4 1-6 1c-2 0-4 0-5-1c0 0 0 0-1 0c-2-1-5-3-6-6c-1-2-2-5-2-8c0-2 0-5 2-7c1-2 3-4 5-5c23-16 50-23 77-23c25 0 49 6 71 16c3 2 7 4 11 6c1 1 3 2 5 4c2 2 2 4 3 6c0 2 1 3 1 4c0 2-1 4-2 5c-1 3-3 5-5 7z m-162 37c0 0 1 0 1 0c3-1 6-2 9-2c7 0 14 3 20 8c5 5 9 12 9 20c0 1 0 1 0 1c0 0 0 1 0 1c0 8-4 15-9 20c-6 5-13 8-20 8c-2 0-4 0-6 0c-10-2-19-10-22-20c-1-3-2-6-2-8c0-7 2-13 6-18c3-4 8-8 14-10z m311 72c0-1 0-2 0-3c0-11-3-22-9-31c-6-8-13-16-22-20c0-5 1-9 1-14c0-24-9-48-23-67c-27-35-68-56-110-67c-22-5-45-8-67-8c-34 0-68 6-100 19c-33 13-64 35-83 66c-11 17-16 37-16 57c0 4 0 9 0 13c-8 5-16 12-21 20c-6 9-10 20-10 31c0 15 6 30 17 40c10 11 24 18 39 18c1 0 1 0 1 0c2 0 3 0 5 0c7 0 15-1 22-4c7-2 13-6 18-10c2 1 4 2 6 3c33 20 72 27 110 29c0 19 2 39 12 56c7 14 20 25 36 29c6 1 12 2 18 2c16 0 32-4 47-10c6 10 15 17 26 22c7 2 14 3 20 3c8 0 15-1 22-4c9-4 18-11 23-20c6-8 10-19 10-29c0-2 0-4-1-6c-1-14-8-26-18-35c-9-8-22-13-35-13c-3 0-5 0-7 0c-13 1-25 7-34 17c-9 9-15 22-15 35c0 1 0 2 0 2c-12 6-25 10-38 10c-2 0-4 0-5 0c-10-1-19-7-23-16c-7-13-8-28-9-43c37-2 75-11 108-30c1-1 2-1 3-2c2 2 5 4 7 5c10 7 22 10 34 10c5 0 10 0 15-2c1 0 1 0 1 0c12-3 22-10 31-19c8-9 13-21 14-34z m-109 122c0-1 0-1 0-2c0-6 3-12 8-17c5-4 11-7 17-7c1 0 1 0 2 0c6 0 12 3 17 7c5 4 8 10 8 17c0 1 0 1 0 2c0 6-3 13-8 17c-5 5-11 8-18 8c-2 0-4 0-6-1c-6-1-11-5-14-9c-4-4-6-10-6-15z m-274-100c-5 2-10 4-15 4c-1 0-2 0-3 0c-7 0-15-3-20-9c-6-5-9-11-9-19c-1-1-1-1-1-2c0-5 2-9 4-13c2-3 4-6 7-8c9 18 22 34 37 47z m323-91c0 17-6 33-15 47c-20 27-50 44-81 54c-6 2-12 4-18 5c-18 4-37 6-56 6c-25 0-50-4-74-11c-31-10-61-27-81-54c-9-14-15-31-15-47c0-6 1-12 2-18c4-14 11-26 20-36c8-11 19-20 31-27c2-1 5-3 7-4c34-19 72-27 110-27c7 0 13 0 20 1c38 3 76 14 108 37c9 8 19 16 26 26c7 11 13 22 15 34c1 5 1 9 1 14z m31 66c0 4-1 8-3 12c-3 6-7 10-12 13c-6 3-12 4-18 4c-5 0-10-1-15-4c15-13 28-29 37-47c3 2 5 5 7 8c2 5 4 9 4 14z"/>
</font>
</defs>
</svg>
